<svg width="50" height="51" viewBox="0 0 50 51" fill="none" xmlns="http://www.w3.org/2000/svg">
<path d="M8.3336 29.3121C7.93936 29.3134 7.55283 29.2029 7.21892 28.9933C6.88501 28.7837 6.61742 28.4836 6.44725 28.128C6.27707 27.7724 6.2113 27.3758 6.25756 26.9843C6.30382 26.5928 6.46023 26.2224 6.7086 25.9162L27.3336 4.66623C27.4883 4.48765 27.6991 4.36698 27.9315 4.32401C28.1638 4.28104 28.4039 4.31834 28.6122 4.42978C28.8206 4.54122 28.9848 4.72018 29.0781 4.93729C29.1713 5.1544 29.1879 5.39675 29.1253 5.62457L25.1253 18.1662C25.0073 18.4819 24.9677 18.8215 25.0098 19.1558C25.052 19.4902 25.1746 19.8093 25.3671 20.0859C25.5597 20.3624 25.8165 20.5881 26.1154 20.7436C26.4144 20.8992 26.7466 20.9798 27.0836 20.9787H41.6669C42.0612 20.9774 42.4477 21.0879 42.7816 21.2975C43.1155 21.5071 43.3831 21.8072 43.5533 22.1628C43.7235 22.5184 43.7892 22.915 43.743 23.3065C43.6967 23.698 43.5403 24.0684 43.2919 24.3746L22.6669 45.6246C22.5122 45.8031 22.3014 45.9238 22.0691 45.9668C21.8367 46.0098 21.5967 45.9725 21.3883 45.861C21.18 45.7496 21.0157 45.5706 20.9225 45.3535C20.8293 45.1364 20.8126 44.894 20.8753 44.6662L24.8753 32.1246C24.9932 31.8089 25.0328 31.4693 24.9907 31.135C24.9486 30.8006 24.826 30.4815 24.6334 30.2049C24.4409 29.9284 24.1841 29.7027 23.8851 29.5471C23.5861 29.3916 23.2539 29.311 22.9169 29.3121H8.3336Z" stroke="#9E0035" stroke-width="4" stroke-linecap="round" stroke-linejoin="round"/>
</svg>
