<svg width="30" height="22" viewBox="0 0 30 22" fill="none" xmlns="http://www.w3.org/2000/svg">
<path d="M17.6666 8.20004V5.93337C18.3999 5.62226 19.1499 5.38893 19.9166 5.23337C20.6833 5.07782 21.4888 5.00004 22.3333 5.00004C22.911 5.00004 23.4777 5.04449 24.0333 5.13337C24.5888 5.22226 25.1333 5.33337 25.6666 5.46671V7.60004C25.1333 7.40004 24.5944 7.25004 24.0499 7.15004C23.5055 7.05004 22.9333 7.00004 22.3333 7.00004C21.4888 7.00004 20.6777 7.1056 19.8999 7.31671C19.1221 7.52782 18.3777 7.82226 17.6666 8.20004ZM17.6666 15.5334V13.2667C18.3999 12.9556 19.1499 12.7223 19.9166 12.5667C20.6833 12.4112 21.4888 12.3334 22.3333 12.3334C22.911 12.3334 23.4777 12.3778 24.0333 12.4667C24.5888 12.5556 25.1333 12.6667 25.6666 12.8V14.9334C25.1333 14.7334 24.5944 14.5834 24.0499 14.4834C23.5055 14.3834 22.9333 14.3334 22.3333 14.3334C21.4888 14.3334 20.6777 14.4334 19.8999 14.6334C19.1221 14.8334 18.3777 15.1334 17.6666 15.5334ZM17.6666 11.8667V9.60004C18.3999 9.28893 19.1499 9.0556 19.9166 8.90004C20.6833 8.74449 21.4888 8.66671 22.3333 8.66671C22.911 8.66671 23.4777 8.71115 24.0333 8.80004C24.5888 8.88893 25.1333 9.00004 25.6666 9.13337V11.2667C25.1333 11.0667 24.5944 10.9167 24.0499 10.8167C23.5055 10.7167 22.9333 10.6667 22.3333 10.6667C21.4888 10.6667 20.6777 10.7723 19.8999 10.9834C19.1221 11.1945 18.3777 11.4889 17.6666 11.8667ZM7.66659 16.3334C8.71103 16.3334 9.7277 16.45 10.7166 16.6834C11.7055 16.9167 12.6888 17.2667 13.6666 17.7334V4.60004C12.7555 4.06671 11.7888 3.66671 10.7666 3.40004C9.74436 3.13337 8.71103 3.00004 7.66659 3.00004C6.86659 3.00004 6.07214 3.07782 5.28325 3.23337C4.49436 3.38893 3.73325 3.62226 2.99992 3.93337V17.1334C3.7777 16.8667 4.54992 16.6667 5.31659 16.5334C6.08325 16.4 6.86659 16.3334 7.66659 16.3334ZM16.3333 17.7334C17.311 17.2667 18.2944 16.9167 19.2833 16.6834C20.2721 16.45 21.2888 16.3334 22.3333 16.3334C23.1333 16.3334 23.9166 16.4 24.6833 16.5334C25.4499 16.6667 26.2221 16.8667 26.9999 17.1334V3.93337C26.2666 3.62226 25.5055 3.38893 24.7166 3.23337C23.9277 3.07782 23.1333 3.00004 22.3333 3.00004C21.2888 3.00004 20.2555 3.13337 19.2333 3.40004C18.211 3.66671 17.2444 4.06671 16.3333 4.60004V17.7334ZM14.9999 21.6667C13.9333 20.8223 12.7777 20.1667 11.5333 19.7C10.2888 19.2334 8.99992 19 7.66659 19C6.73325 19 5.81659 19.1223 4.91659 19.3667C4.01659 19.6112 3.15547 19.9556 2.33325 20.4C1.86659 20.6445 1.41659 20.6334 0.983252 20.3667C0.549919 20.1 0.333252 19.7112 0.333252 19.2V3.13337C0.333252 2.88893 0.394363 2.6556 0.516585 2.43337C0.638808 2.21115 0.822141 2.04449 1.06659 1.93337C2.08881 1.40004 3.15547 1.00004 4.26659 0.733374C5.3777 0.466707 6.51103 0.333374 7.66659 0.333374C8.95547 0.333374 10.2166 0.500041 11.4499 0.833374C12.6833 1.16671 13.8666 1.66671 14.9999 2.33337C16.1333 1.66671 17.3166 1.16671 18.5499 0.833374C19.7833 0.500041 21.0444 0.333374 22.3333 0.333374C23.4888 0.333374 24.6221 0.466707 25.7333 0.733374C26.8444 1.00004 27.911 1.40004 28.9333 1.93337C29.1777 2.04449 29.361 2.21115 29.4833 2.43337C29.6055 2.6556 29.6666 2.88893 29.6666 3.13337V19.2C29.6666 19.7112 29.4499 20.1 29.0166 20.3667C28.5833 20.6334 28.1333 20.6445 27.6666 20.4C26.8444 19.9556 25.9833 19.6112 25.0833 19.3667C24.1833 19.1223 23.2666 19 22.3333 19C20.9999 19 19.711 19.2334 18.4666 19.7C17.2221 20.1667 16.0666 20.8223 14.9999 21.6667Z" fill="#017EFE"/>
</svg>
