<svg width="50" height="51" viewBox="0 0 50 51" fill="none" xmlns="http://www.w3.org/2000/svg">
<path d="M22.9171 15.981L10.4296 33.0435C10.1358 33.4448 9.99529 33.9381 10.0335 34.4341C10.0717 34.9301 10.2861 35.396 10.638 35.7476L12.3401 37.4518C12.697 37.8084 13.1713 38.0233 13.6748 38.0566C14.1782 38.09 14.6767 37.9395 15.0776 37.633L31.438 25.1455" stroke="#1D65AE" stroke-width="4" stroke-linecap="round" stroke-linejoin="round"/>
<path d="M34.3747 44.2582C32.2914 42.854 29.9414 41.8123 27.0831 41.8123C22.7956 41.8123 18.8997 46.7207 14.5831 45.979C10.2664 45.2373 8.80182 38.9603 11.4581 36.604" stroke="#1D65AE" stroke-width="4" stroke-linecap="round" stroke-linejoin="round"/>
<path d="M33.3337 25.1453C39.0866 25.1453 43.7503 20.4816 43.7503 14.7287C43.7503 8.97571 39.0866 4.31201 33.3337 4.31201C27.5807 4.31201 22.917 8.97571 22.917 14.7287C22.917 20.4816 27.5807 25.1453 33.3337 25.1453Z" stroke="#1D65AE" stroke-width="4" stroke-linecap="round" stroke-linejoin="round"/>
</svg>
