<svg width="50" height="51" viewBox="0 0 50 51" fill="none" xmlns="http://www.w3.org/2000/svg">
<path d="M25 14.729V43.8957" stroke="#1D65AE" stroke-width="4" stroke-linecap="round" stroke-linejoin="round"/>
<path d="M6.24984 37.6455C5.6973 37.6455 5.1674 37.426 4.7767 37.0353C4.386 36.6446 4.1665 36.1147 4.1665 35.5622V8.47884C4.1665 7.92631 4.386 7.3964 4.7767 7.0057C5.1674 6.615 5.6973 6.39551 6.24984 6.39551H16.6665C18.8766 6.39551 20.9963 7.27348 22.5591 8.83628C24.1219 10.3991 24.9998 12.5187 24.9998 14.7288C24.9998 12.5187 25.8778 10.3991 27.4406 8.83628C29.0034 7.27348 31.123 6.39551 33.3332 6.39551H43.7498C44.3024 6.39551 44.8323 6.615 45.223 7.0057C45.6137 7.3964 45.8332 7.92631 45.8332 8.47884V35.5622C45.8332 36.1147 45.6137 36.6446 45.223 37.0353C44.8323 37.426 44.3024 37.6455 43.7498 37.6455H31.2498C29.5922 37.6455 28.0025 38.304 26.8304 39.4761C25.6583 40.6482 24.9998 42.2379 24.9998 43.8955C24.9998 42.2379 24.3414 40.6482 23.1693 39.4761C21.9972 38.304 20.4074 37.6455 18.7498 37.6455H6.24984Z" stroke="#1D65AE" stroke-width="4" stroke-linecap="round" stroke-linejoin="round"/>
</svg>
