<svg width="16" height="24" viewBox="0 0 16 24" fill="none" xmlns="http://www.w3.org/2000/svg">
<path d="M2.66667 24V21.3333H6.66667V15.8667C4.75556 15.5556 3.16667 14.6667 1.9 13.2C0.633333 11.7333 0 10 0 8V0H16V8C16 10 15.3667 11.7333 14.1 13.2C12.8333 14.6667 11.2444 15.5556 9.33333 15.8667V21.3333H13.3333V24H2.66667ZM8 13.3333C9.24444 13.3333 10.3333 12.9556 11.2667 12.2C12.2 11.4444 12.8222 10.4889 13.1333 9.33333H2.86667C3.17778 10.4889 3.8 11.4444 4.73333 12.2C5.66667 12.9556 6.75556 13.3333 8 13.3333ZM2.66667 6.66667H13.3333V2.66667H2.66667V6.66667Z" fill="#017EFE"/>
</svg>
