<?xml version="1.0" encoding="utf-8"?>
<!-- Generator: Adobe Illustrator 23.0.1, SVG Export Plug-In . SVG Version: 6.00 Build 0)  -->
<svg version="1.1" id="Layer_1" xmlns="http://www.w3.org/2000/svg" xmlns:xlink="http://www.w3.org/1999/xlink" x="0px" y="0px"
	 viewBox="0 0 841.9 595.3" style="enable-background:new 0 0 841.9 595.3;" xml:space="preserve">
<style type="text/css">
	.st0{fill:#FFFFFF;}
</style>
<g>
	<rect x="2.7" y="233.4" class="st0" width="29.6" height="131.6"/>
	<path class="st0" d="M117.4,230.3c-17.9,0-34.5,2.1-53.7,8.8V365h28.6V258.6c7-1.8,15.1-3.9,22.6-3.9c21.6,0,41.5,8.3,41.5,34.8
		V365h28v-75.6C184.4,246.4,154.3,230.3,117.4,230.3"/>
	<path class="st0" d="M422.3,337.8c-7.8,2.3-16.4,3.6-23.9,3.6c-27,0-40.8-22.6-40.8-43.4s14-43.1,40.8-43.1
		c7.5,0,16.1,0.8,24.1,2.1C422.6,284.8,422.3,310.2,422.3,337.8 M329.6,297.5c-0.3,34.5,23.9,69.1,68.8,69.1c8,0,16.1-1.6,23.6-4.2
		c0,20.3-13.8,28-28,28.3c-14.8,0.3-32.2-6-42.6-16.1l-15.3,18.2c16.1,16.1,36.6,23.6,57.6,23.4c29.1-0.5,56.6-18.7,56.6-57.4v-120
		c-19-7-36.4-8.6-51.9-8.6C354.3,230.3,330.1,264,329.6,297.5"/>
	<path class="st0" d="M541.8,342.4c-19.5,0-40.5-14-40.5-43.1s21-42.6,40.5-42.6c20,0,40.2,13.5,40.2,42.6S561.8,342.4,541.8,342.4
		 M541.8,231c-39.5,0-68.8,29.9-68.8,68.3c0,38.2,29.3,68.6,68.8,68.6c39.7,0,68.6-30.4,68.6-68.6C610.3,260.9,581.5,231,541.8,231"
		/>
	<path class="st0" d="M243.5,233.4v-9.9c0-8.2,5.9-15.2,13.9-15.2h51v-25.8h-53.6c-23.7,0-39.6,15.2-39.6,41v9.9h-14.3v24.1h14.3
		V365h28.3V257.5h36.6V365h28.3V233.4H243.5z"/>
	<path class="st0" d="M641.3,51.4l1,0.4l12.1-29.6l-1.1-0.5c-2.6-1-5.2-2-7.8-3c-7.6-2.8-15.3-5.3-23-7.5L613.7,42
		c6.9,2,13.8,4.2,20.6,6.7C636.6,49.6,639,50.5,641.3,51.4"/>
	<path class="st0" d="M601.5,38.8l7.2-31.2c-11-2.5-22.2-4.5-33.3-5.8l-3.6,31.8C581.8,34.8,591.8,36.6,601.5,38.8"/>
	<path class="st0" d="M527.6,0.3l1.6,32c10-0.5,20.2-0.4,30.2,0.3l2.1-31.9C550.2-0.1,538.8-0.2,527.6,0.3"/>
	<path class="st0" d="M793.3,212.9l30.3-10.2c-12.1-35.9-30.6-68.7-55-97.5l-24.4,20.7C765.9,151.5,782.4,180.8,793.3,212.9"/>
	<path class="st0" d="M759.2,94.6c-25.8-27.7-56.2-49.9-90.5-66.1l-13.6,28.9c30.6,14.4,57.7,34.3,80.7,58.9L759.2,94.6z"/>
	<path class="st0" d="M688.4,238.7c-10.8-27.3-29-51.2-52.7-68.9l19.2-25.6c28.4,21.3,50.3,49.9,63.3,82.7L688.4,238.7z
		 M722.5,355.3l-30.5-9.7c4-12.6,6.4-25.6,7.2-38.8c1.1-19.2-1.2-38.2-6.9-56.6l30.6-9.4c6.8,22,9.6,44.9,8.2,67.9
		C730.2,324.5,727.3,340.2,722.5,355.3"/>
	<path class="st0" d="M616,438.2c8.6-4.5,16.7-9.8,24.3-15.8l19.8,25.1c-9.1,7.2-18.9,13.6-29.2,19L616,438.2z"/>
	<path class="st0" d="M649.2,414.4c7.2-6.5,13.8-13.6,19.7-21.3l25.4,19.5c-7.1,9.2-15,17.8-23.7,25.6L649.2,414.4z"/>
	<path class="st0" d="M675.5,383.2c5.4-8,10-16.6,13.8-25.5l29.4,12.6c-4.6,10.7-10.2,21-16.6,30.6L675.5,383.2z"/>
	<path class="st0" d="M546.2,509.9l0.7,32c38.1-0.8,76.1-10.8,109.9-28.9l-15.1-28.2C612.4,500.5,579.3,509.2,546.2,509.9"/>
	<path class="st0" d="M532.6,541.8l1.2-32c-15.2-0.6-30.4-2.8-45.2-6.6c-17.5-4.5-34.3-11.2-49.9-19.9l-15.5,28
		c18,10,37.3,17.7,57.4,22.9C497.6,538.5,515.1,541.1,532.6,541.8"/>
	<path class="st0" d="M753.5,415.1l-0.2,0.4C748,425,742,434.3,735.5,443l-25.6-19.1c5.6-7.6,10.9-15.6,15.5-23.9l0.2-0.4
		L753.5,415.1z"/>
	<path class="st0" d="M727,453.7c-7,8.4-14.7,16.3-22.7,23.7l-21.5-23.7c7-6.4,13.7-13.3,19.7-20.6L727,453.7z"/>
	<path class="st0" d="M693.9,486.3c-8.5,6.9-17.5,13.2-26.8,18.9l-16.6-27.3c8.1-4.9,15.9-10.5,23.3-16.4L693.9,486.3z"/>
	<path class="st0" d="M807.2,297.4c0,33.7-6.4,66.8-18.8,98.2l29.7,11.8c13.9-35.2,21-72.2,21.1-110L807.2,297.4z"/>
	<path class="st0" d="M726,488.9l22.2,23c27.2-26.2,48.9-57,64.5-91.6l-29.2-13.2C769.6,438.1,750.2,465.6,726,488.9"/>
	<path class="st0" d="M807,286.2l32-1.4c-0.5-11.2-1.6-22.6-3.3-33.6l-31.6,5C805.6,266,806.6,276.1,807,286.2"/>
	<path class="st0" d="M716.2,497.8c-25.5,22.1-54.5,39-86.4,50.3l10.6,30.2c35.7-12.6,68.3-31.6,96.8-56.3L716.2,497.8z"/>
	<path class="st0" d="M518.4,562.3l-2.8,31.9c37.6,3.3,75.1-0.6,111.4-11.5l-9.2-30.6C585.4,561.8,551.9,565.2,518.4,562.3"/>
	<path class="st0" d="M656.9,119.3l17.4-26.9c-32-20.7-69.1-33.7-107.2-37.7l-3.3,31.8C596.9,90,629.1,101.4,656.9,119.3"/>
	<path class="st0" d="M686.1,100.6l-18.9,25.8c12.3,9,23.6,19.4,33.7,30.9c11.9,13.5,22.1,28.5,30.2,44.5l28.5-14.5
		c-9.3-18.4-21-35.6-34.7-51.2C713.3,122.9,700.2,110.9,686.1,100.6"/>
	<path class="st0" d="M432.1,81.6l0.4-0.2c9.7-4.9,19.9-9.2,30.1-12.8l10.5,30.2c-8.9,3.1-17.8,6.9-26.2,11.1l-0.4,0.2L432.1,81.6z"
		/>
	<path class="st0" d="M475.7,64.5c10.5-3,21.3-5.3,32.1-6.9l4.6,31.7c-9.4,1.3-18.8,3.4-27.9,6L475.7,64.5z"/>
	<path class="st0" d="M521.4,56c10.9-0.9,21.9-1.1,32.8-0.6l-1.5,32c-9.5-0.5-19.1-0.3-28.5,0.5L521.4,56z"/>
</g>
</svg>
