<svg width="494" height="98" viewBox="0 0 494 98" fill="none" xmlns="http://www.w3.org/2000/svg">
<rect width="98" height="98" fill="#F6143F"/>
<g clip-path="url(#clip0_1921_99)">
<path d="M56.3984 67.8704L56.3984 30.6655L63.4178 30.6655V61.963L79.1939 61.963V67.8704L56.3984 67.8704Z" fill="white"/>
<path d="M20.2617 67.8697L29.0417 52.6958C26.9835 51.9208 25.2388 50.4879 24.0785 48.6196C22.9181 46.7513 22.4071 44.5522 22.6247 42.3637V42.0626C22.6247 32.2401 30.0379 30.4795 39.0032 30.4795C42.7561 30.4795 46.1152 30.4795 49.4048 30.7112V67.9392L42.5939 67.9392V54.2016L39.1422 54.2016C37.9839 54.2016 36.8255 54.2016 35.8989 54.2016L27.6749 67.9855L20.2617 67.8697ZM29.5282 42.3869C29.5282 47.2055 32.3776 48.5722 38.7946 48.5722C40.0919 48.5722 41.3429 48.5722 42.6402 48.5722V36.3637C33.5359 36.3637 29.5282 36.3637 29.5282 42.1552V42.3869Z" fill="white"/>
</g>
<path d="M413.417 31.4477L404.055 62.3585L388.271 62.3585L388.271 31.4477L381.287 31.4477L381.287 68.1253L409.373 68.1253L412.668 57.8341L424.614 57.8341L427.816 68.1253H435.155L423.921 31.3735L413.417 31.4477ZM413.923 52.2156L417.068 42.0912C417.611 40.237 417.967 38.2714 418.36 36.2874H418.809C419.135 38.2435 419.566 40.181 420.101 42.0912L423.209 52.2156L413.923 52.2156Z" fill="#F6143F"/>
<path d="M459.049 49.3062C460.519 48.6293 461.751 47.5338 462.588 46.1596C463.425 44.7855 463.829 43.1953 463.749 41.5924V41.1474C463.749 32.8773 457.608 31.1528 447.665 31.1528C443.415 31.1528 441.617 31.2456 436.73 31.4495L436.73 68.1271C441.43 68.3311 443.228 68.4238 447.459 68.4238C457.065 68.4238 463.955 66.6993 463.955 57.5021V57.0014C464.03 55.3758 463.6 53.7665 462.723 52.3905C461.846 51.0145 460.563 49.938 459.049 49.3062V49.3062ZM443.527 36.8455L447.665 36.8455C453.619 36.8455 457.027 37.1792 457.027 41.3884V41.8335C457.027 44.9116 455.641 46.7844 449.893 46.7844L443.602 46.7844L443.527 36.8455ZM457.102 57.5763C457.102 62.7682 453.02 62.8053 445.418 62.8053H443.546V51.7909L449.875 51.7909C455.585 51.7909 457.083 53.8121 457.121 57.02L457.102 57.5763Z" fill="#F6143F"/>
<path d="M484.339 47.0812L479.303 45.0415C475.558 43.5766 474.547 42.427 474.547 40.2019C474.547 37.2351 476.906 36.4933 481.25 36.4933C485.144 36.4933 488.945 36.8828 491.791 37.1423V31.8947C488.233 31.1049 484.597 30.7069 480.95 30.708C472.15 30.708 467.656 33.2669 467.656 40.4058C467.656 45.7462 470.615 48.8614 476.101 51.0865L481.718 53.3673C485.462 54.8878 486.361 56.2228 486.361 58.6148C486.361 61.9155 484.208 63.1578 479.714 63.1578C475.962 63.1558 472.212 62.9577 468.48 62.5645V67.8492C472.329 68.6391 476.252 69.0245 480.182 68.9988C488.515 68.9988 493.289 65.2902 493.289 58.5592C493.495 52.3288 490.892 49.6958 484.339 47.0812Z" fill="#F6143F"/>
<path d="M129.34 42.686V43.0197C129.34 48.5826 131.793 51.5309 135.744 53.2182L127 68.1266L134.489 68.1266L142.672 54.5348C143.664 54.5348 144.769 54.5348 145.911 54.5348L149.375 54.5348L149.375 68.1266L156.153 68.1266L156.153 31.4491C152.857 31.3007 149.525 31.208 145.761 31.208C136.736 31.208 129.34 32.9881 129.34 42.686ZM149.281 49.1018C147.97 49.1018 146.716 49.1018 145.424 49.1018C139.039 49.1018 136.175 47.7667 136.175 43.0197V42.723C136.175 37.0304 140.181 36.9748 149.281 36.9748L149.281 49.1018Z" fill="black"/>
<path d="M200.172 57.0002C199.516 59.1326 199.067 61.5988 198.674 63.5828C198.168 61.7286 197.813 59.1326 197.176 57.0002L189.518 31.5225L160.684 31.5225L160.684 68.1258L184.313 68.1258V62.563L167.686 62.563L167.686 52.1234L183.264 52.1234V46.5606L167.686 46.5606L167.686 37.2892L183.995 37.2892L193.356 68.2927L203.542 68.2927L214.776 31.541L207.736 31.541L200.172 57.0002Z" fill="black"/>
<path d="M216.805 68.2014L240.434 68.2014V62.5274L223.807 62.5274L223.807 52.0878L239.385 52.0878V46.5435L223.807 46.5435L223.807 37.198L240.434 37.198V31.4497L216.805 31.4497L216.805 68.2014Z" fill="black"/>
<path d="M271.207 43.0197V42.686C271.207 32.9881 263.811 31.208 254.861 31.208C251.116 31.208 247.784 31.3007 244.488 31.4491L244.488 68.1266L251.266 68.1266L251.266 54.5719H254.73C255.872 54.5719 256.977 54.5719 257.969 54.5719L266.17 68.1637L273.566 68.1637L264.803 53.2924C268.754 51.5309 271.207 48.6196 271.207 43.0197ZM264.354 43.0197C264.354 47.7667 261.508 49.1017 255.123 49.1017C253.831 49.1017 252.577 49.1017 251.266 49.1017L251.266 37.0305C260.366 37.0305 264.373 37.0304 264.373 42.7787L264.354 43.0197Z" fill="black"/>
<path d="M291.038 47.0812L286.002 45.0601C282.257 43.5767 281.246 42.427 281.246 40.2019C281.246 37.235 283.605 36.4933 287.949 36.4933C291.843 36.4933 295.644 36.9013 298.49 37.1423V31.8947C294.931 31.1074 291.296 30.7095 287.649 30.708C278.849 30.708 274.355 33.2854 274.355 40.4058C274.355 45.7461 277.295 48.8613 282.8 51.0865L288.417 53.3673C292.162 54.8878 293.061 56.2414 293.061 58.6148C293.061 61.9154 290.907 63.1578 286.414 63.1578C282.692 63.1525 278.974 62.9545 275.273 62.5645V67.8677C279.118 68.6388 283.033 69.0179 286.957 68.9988C295.307 68.9988 300.063 65.2902 300.063 58.5592C300.119 52.3288 297.535 49.6958 291.038 47.0812Z" fill="black"/>
<path d="M310.183 31.4497L303.199 31.4497L303.199 68.2014L310.183 68.2014L310.183 31.4497Z" fill="black"/>
<path d="M338.3 51.4388C338.3 53.6639 338.3 56.2414 338.488 58.4109H338.3C337.495 56.5566 336.428 54.4984 335.454 52.8481L323.621 31.4868L315.514 31.4868L315.514 68.1273L321.917 68.1273L321.917 47.4706C321.917 45.2455 321.805 42.9833 321.711 40.9065H321.805C322.666 42.7608 323.677 44.7078 324.613 46.4694L336.503 68.2756L344.648 68.2756L344.648 31.4497L338.3 31.4497L338.3 51.4388Z" fill="black"/>
<path d="M366.862 48.6206V53.8867L369.708 53.8867V62.8058C368.416 62.917 366.563 62.9541 364.709 62.9541C358.718 62.9541 355.628 60.8402 355.628 52.4218L355.628 47.2299C355.628 38.0698 359.523 36.7347 365.57 36.7347C368.117 36.7347 373.902 37.0313 376.299 37.2353V31.9506C372.374 31.1122 368.369 30.6957 364.353 30.7083C356.658 30.7083 348.682 33.1745 348.682 47.2299L348.682 52.4218C348.682 65.7355 355.722 68.9991 364.222 68.9991C368.294 69.01 372.357 68.6312 376.355 67.8679V48.6206L366.862 48.6206Z" fill="black"/>
<defs>
<clipPath id="clip0_1921_99">
<rect width="58.9347" height="37.4597" fill="white" transform="translate(20.2656 30.4097)"/>
</clipPath>
</defs>
</svg>
