<svg width="1036" height="242" viewBox="0 0 1036 242" fill="none" xmlns="http://www.w3.org/2000/svg">
<g clip-path="url(#clip0_146_148)">
<path d="M880.282 -0.843262C887.063 -0.632451 894.056 -0.632451 901.049 -0.210829C921.393 0.843225 941.525 3.37295 961.021 9.27566C973.524 13.0703 985.392 18.3405 995.14 27.1946C1003.62 34.7838 1009.13 43.8486 1010.19 55.654C974.372 55.654 938.77 55.654 903.169 55.654C900.414 50.3838 895.328 48.4865 889.818 47.854C881.129 47.2216 872.229 47.2216 863.54 47.2216C860.15 47.2216 856.759 48.2757 853.58 49.1189C851.037 49.9621 848.918 51.4378 851.038 55.4432C853.581 56.0757 856.547 57.3405 859.726 57.7621C868.626 58.8162 877.739 59.8703 886.851 60.2919C913.552 61.7675 940.254 63.0324 966.531 68.0919C977.975 70.2 989.418 72.9405 999.59 79.054C1008.07 83.9027 1013.79 90.8594 1014.85 100.978C1014.85 101.4 1015.27 102.032 1015.27 103.086C1015.48 105.827 1015.7 106.038 1015.27 108.778C1015.06 110.465 1014.85 111.097 1014.85 111.308C1012.3 124.168 1003.83 132.178 992.809 137.238C983.272 141.665 973.312 145.249 963.352 147.778C938.982 153.47 914.188 154.946 889.394 154.946C887.487 154.946 885.792 155.157 883.672 154.946C881.977 155.157 880.494 155.157 878.798 155.157C876.679 155.157 874.984 154.946 873.077 154.946C848.071 154.735 823.065 153.049 798.695 146.935C787.251 143.984 776.444 140.189 766.483 133.865C753.981 125.854 745.716 115.103 744.021 100.135C744.021 99.5027 744.232 99.0811 744.232 98.2378C779.834 98.2378 815.436 98.2378 851.461 98.2378C854.216 103.93 859.726 105.405 865.448 106.249C876.891 107.935 888.335 107.724 899.778 106.249C903.169 105.827 906.983 105.405 909.102 101.611C908.466 98.6594 905.923 97.6054 903.38 97.1838C896.387 96.1297 889.394 95.0757 882.401 94.4432C864.6 93.1784 847.011 92.5459 829.21 91.0703C810.986 89.5946 792.973 87.2757 775.596 81.1621C771.358 79.6865 767.543 77.7892 763.517 75.6811C742.325 64.7189 742.961 37.1027 758.219 24.0324C767.543 16.2324 778.139 11.3838 789.582 8.2216C815.224 1.05404 841.501 -0.632451 867.991 -0.843262" fill="#FF0030"/>
<path fill-rule="evenodd" clip-rule="evenodd" d="M327.396 135.341C324.853 140.4 322.522 145.46 320.191 150.73C286.92 150.73 253.861 150.73 219.955 150.73C245.597 101.611 271.238 52.7028 296.88 3.37305C336.932 3.37305 376.984 3.37305 417.672 3.37305C442.678 51.4379 468.107 99.9244 493.537 148.2C493.82 148.2 494.102 148.13 494.385 147.989C494.385 99.9244 494.385 51.8595 494.385 3.58386C527.656 3.58386 560.502 3.58386 593.985 3.58386C593.985 19.0433 593.985 34.6433 593.985 50.3839C594.267 50.5244 594.55 50.6649 594.833 50.8055C611.079 35.0649 627.256 19.2541 643.361 3.37305C682.353 3.37305 721.134 3.37305 760.974 3.37305C739.57 24.6649 718.591 45.1136 697.399 66.1947C719.015 94.2325 740.842 122.27 762.881 150.73C723.889 150.73 685.744 150.73 646.964 150.73C634.814 134.427 622.452 117.773 609.878 100.768C604.581 104.984 599.495 108.989 594.197 113.205C594.197 125.433 594.197 137.87 594.197 150.519C527.655 150.519 461.326 150.519 394.573 150.519C392.242 145.881 389.911 140.611 387.368 135.341C367.448 135.341 347.316 135.341 327.396 135.341ZM343.713 89.5947C353.25 89.5947 361.726 89.5947 371.05 89.5947C366.388 78.8433 362.15 68.7244 357.276 57.3406C352.614 68.7244 348.375 78.8433 343.713 89.5947Z" fill="#FF0030"/>
<path d="M230.127 112.784C191.558 112.784 153.414 112.784 114.845 112.784C114.845 125.643 114.845 138.081 114.845 150.73C82.846 150.73 51.2706 150.73 19.4834 150.73C19.4834 101.822 19.4834 52.7027 19.4834 3.58374C90.8987 3.58374 162.102 3.58374 233.729 3.58374C233.729 20.6594 233.729 37.9459 233.729 55.654C194.313 55.654 154.897 55.654 115.057 55.654C115.057 59.6594 115.057 63.2432 115.057 67.2486C153.414 67.2486 191.558 67.2486 230.127 67.2486C230.127 82.427 230.127 97.1837 230.127 112.784Z" fill="#FF0030"/>
</g>
<path d="M24.0981 230H20.6948V200.731H36.9907V203.734H24.0981V214.465H36.21V217.448H24.0981V230ZM58.1714 230H41.8755V200.731H58.1714V203.734H45.2788V213.204H57.4307V216.167H45.2788V226.997H58.1714V230ZM72.5654 200.731C74.9678 200.731 76.9497 201.032 78.5112 201.632C80.0861 202.22 81.2606 203.12 82.0347 204.335C82.8088 205.549 83.1958 207.098 83.1958 208.979C83.1958 210.528 82.9155 211.822 82.355 212.863C81.7944 213.891 81.0604 214.725 80.1528 215.366C79.2453 216.006 78.2777 216.5 77.25 216.847L85.2778 230H81.314L74.147 217.788H68.061V230H64.6577V200.731H72.5654ZM72.3652 203.674H68.061V214.905H72.7056C75.0946 214.905 76.8496 214.418 77.9707 213.444C79.1051 212.47 79.6724 211.035 79.6724 209.14C79.6724 207.151 79.0718 205.743 77.8706 204.916C76.6828 204.088 74.8477 203.674 72.3652 203.674ZM87.6001 220.471V217.508H97.5298V220.471H87.6001ZM128.56 215.326C128.56 217.581 128.273 219.637 127.699 221.492C127.125 223.333 126.271 224.922 125.137 226.256C124.016 227.578 122.621 228.599 120.953 229.319C119.284 230.04 117.349 230.4 115.147 230.4C112.878 230.4 110.896 230.04 109.201 229.319C107.52 228.599 106.118 227.571 104.997 226.236C103.889 224.902 103.055 223.307 102.495 221.452C101.947 219.597 101.674 217.541 101.674 215.286C101.674 212.296 102.168 209.674 103.155 207.418C104.143 205.162 105.638 203.407 107.64 202.153C109.655 200.898 112.177 200.271 115.207 200.271C118.103 200.271 120.539 200.892 122.514 202.133C124.503 203.374 126.004 205.122 127.019 207.378C128.046 209.62 128.56 212.269 128.56 215.326ZM105.257 215.326C105.257 217.808 105.611 219.957 106.318 221.772C107.026 223.587 108.107 224.988 109.562 225.976C111.03 226.964 112.891 227.458 115.147 227.458C117.416 227.458 119.271 226.964 120.712 225.976C122.167 224.988 123.242 223.587 123.936 221.772C124.63 219.957 124.977 217.808 124.977 215.326C124.977 211.549 124.182 208.599 122.594 206.477C121.019 204.342 118.557 203.274 115.207 203.274C112.938 203.274 111.07 203.761 109.602 204.735C108.133 205.71 107.039 207.098 106.318 208.899C105.611 210.688 105.257 212.83 105.257 215.326ZM155.526 200.731L145.016 230H141.593L131.083 200.731H134.646L141.493 220.01C141.773 220.784 142.02 221.525 142.233 222.232C142.46 222.94 142.66 223.62 142.834 224.274C143.007 224.928 143.161 225.562 143.294 226.176C143.428 225.562 143.581 224.928 143.755 224.274C143.928 223.607 144.129 222.92 144.355 222.212C144.582 221.492 144.836 220.738 145.116 219.95L151.923 200.731H155.526ZM177.908 230L174.305 220.711H162.573L158.99 230H155.546L166.998 200.611H170.061L181.432 230H177.908ZM173.284 217.688L169.86 208.459C169.78 208.219 169.647 207.825 169.46 207.278C169.286 206.731 169.106 206.163 168.919 205.576C168.733 204.989 168.579 204.515 168.459 204.155C168.326 204.702 168.179 205.249 168.019 205.796C167.872 206.33 167.725 206.831 167.578 207.298C167.431 207.752 167.305 208.139 167.198 208.459L163.714 217.688H173.284ZM214.504 230L210.9 220.711H199.169L195.585 230H192.142L203.593 200.611H206.656L218.027 230H214.504ZM209.879 217.688L206.456 208.459C206.376 208.219 206.243 207.825 206.056 207.278C205.882 206.731 205.702 206.163 205.515 205.576C205.328 204.989 205.175 204.515 205.055 204.155C204.921 204.702 204.774 205.249 204.614 205.796C204.467 206.33 204.321 206.831 204.174 207.298C204.027 207.752 203.9 208.139 203.793 208.459L200.31 217.688H209.879ZM243.192 230H239.168L228.618 215.766L225.495 218.569V230H222.091V200.731H225.495V215.326C226.255 214.458 227.036 213.597 227.837 212.743C228.638 211.876 229.432 211.001 230.219 210.121L238.768 200.731H242.751L231.1 213.424L243.192 230ZM265.554 230L261.95 220.711H250.219L246.635 230H243.192L254.643 200.611H257.706L269.077 230H265.554ZM260.929 217.688L257.506 208.459C257.426 208.219 257.292 207.825 257.105 207.278C256.932 206.731 256.752 206.163 256.565 205.576C256.378 204.989 256.225 204.515 256.104 204.155C255.971 204.702 255.824 205.249 255.664 205.796C255.517 206.33 255.37 206.831 255.224 207.298C255.077 207.752 254.95 208.139 254.843 208.459L251.36 217.688H260.929ZM296.384 215.085C296.384 218.382 295.783 221.138 294.582 223.354C293.381 225.556 291.639 227.217 289.357 228.338C287.088 229.446 284.332 230 281.089 230H273.141V200.731H281.97C284.946 200.731 287.508 201.279 289.657 202.373C291.806 203.454 293.461 205.062 294.622 207.198C295.797 209.32 296.384 211.949 296.384 215.085ZM292.8 215.206C292.8 212.576 292.36 210.408 291.479 208.699C290.611 206.991 289.33 205.723 287.635 204.896C285.954 204.055 283.892 203.634 281.449 203.634H276.544V227.077H280.688C284.719 227.077 287.742 226.083 289.757 224.094C291.786 222.106 292.8 219.143 292.8 215.206ZM319.186 230H302.89V200.731H319.186V203.734H306.293V213.204H318.445V216.167H306.293V226.997H319.186V230ZM338.545 230L328.715 204.095H328.555C328.609 204.642 328.655 205.309 328.695 206.097C328.735 206.884 328.769 207.745 328.795 208.679C328.822 209.6 328.835 210.541 328.835 211.502V230H325.672V200.731H330.717L339.986 225.075H340.126L349.536 200.731H354.541V230H351.177V211.262C351.177 210.394 351.191 209.527 351.217 208.659C351.244 207.778 351.277 206.951 351.317 206.177C351.357 205.389 351.397 204.709 351.438 204.135H351.277L341.328 230H338.545ZM379.064 222.212C379.064 223.947 378.631 225.429 377.763 226.657C376.909 227.871 375.708 228.799 374.16 229.439C372.611 230.08 370.79 230.4 368.694 230.4C367.587 230.4 366.539 230.347 365.551 230.24C364.564 230.133 363.656 229.98 362.829 229.78C362.001 229.58 361.274 229.333 360.646 229.039V225.776C361.647 226.19 362.869 226.577 364.31 226.937C365.751 227.284 367.26 227.458 368.834 227.458C370.303 227.458 371.544 227.264 372.558 226.877C373.572 226.477 374.34 225.909 374.86 225.175C375.394 224.428 375.661 223.534 375.661 222.493C375.661 221.492 375.441 220.658 375 219.99C374.56 219.31 373.826 218.696 372.798 218.148C371.784 217.588 370.396 216.994 368.634 216.367C367.393 215.926 366.299 215.446 365.351 214.925C364.403 214.391 363.609 213.791 362.969 213.124C362.328 212.456 361.841 211.682 361.507 210.801C361.187 209.92 361.027 208.913 361.027 207.778C361.027 206.217 361.421 204.882 362.208 203.774C363.009 202.653 364.11 201.799 365.511 201.212C366.926 200.611 368.548 200.311 370.376 200.311C371.938 200.311 373.379 200.458 374.7 200.751C376.035 201.045 377.256 201.439 378.364 201.933L377.303 204.855C376.248 204.415 375.127 204.048 373.939 203.754C372.765 203.461 371.55 203.314 370.296 203.314C369.041 203.314 367.98 203.501 367.113 203.875C366.259 204.235 365.605 204.749 365.151 205.416C364.697 206.083 364.47 206.877 364.47 207.798C364.47 208.826 364.684 209.68 365.111 210.361C365.551 211.042 366.245 211.649 367.193 212.183C368.154 212.703 369.422 213.25 370.997 213.824C372.718 214.451 374.18 215.119 375.381 215.826C376.582 216.52 377.496 217.374 378.124 218.389C378.751 219.39 379.064 220.664 379.064 222.212ZM406.151 230H402.127L391.577 215.766L388.454 218.569V230H385.05V200.731H388.454V215.326C389.214 214.458 389.995 213.597 390.796 212.743C391.597 211.876 392.391 211.001 393.178 210.121L401.727 200.731H405.71L394.059 213.424L406.151 230ZM428.513 230L424.909 220.711H413.178L409.594 230H406.151L417.602 200.611H420.665L432.036 230H428.513ZM423.888 217.688L420.465 208.459C420.385 208.219 420.251 207.825 420.064 207.278C419.891 206.731 419.711 206.163 419.524 205.576C419.337 204.989 419.184 204.515 419.063 204.155C418.93 204.702 418.783 205.249 418.623 205.796C418.476 206.33 418.329 206.831 418.183 207.298C418.036 207.752 417.909 208.139 417.802 208.459L414.319 217.688H423.888ZM467.851 230H463.827L453.277 215.766L450.154 218.569V230H446.75V200.731H450.154V215.326C450.915 214.458 451.695 213.597 452.496 212.743C453.297 211.876 454.091 211.001 454.878 210.121L463.427 200.731H467.411L455.759 213.424L467.851 230ZM497.24 215.326C497.24 217.581 496.953 219.637 496.379 221.492C495.805 223.333 494.951 224.922 493.816 226.256C492.695 227.578 491.301 228.599 489.632 229.319C487.964 230.04 486.029 230.4 483.827 230.4C481.558 230.4 479.576 230.04 477.881 229.319C476.199 228.599 474.798 227.571 473.677 226.236C472.569 224.902 471.735 223.307 471.174 221.452C470.627 219.597 470.354 217.541 470.354 215.286C470.354 212.296 470.847 209.674 471.835 207.418C472.823 205.162 474.317 203.407 476.319 202.153C478.335 200.898 480.857 200.271 483.887 200.271C486.783 200.271 489.219 200.892 491.194 202.133C493.182 203.374 494.684 205.122 495.698 207.378C496.726 209.62 497.24 212.269 497.24 215.326ZM473.937 215.326C473.937 217.808 474.291 219.957 474.998 221.772C475.705 223.587 476.786 224.988 478.241 225.976C479.709 226.964 481.571 227.458 483.827 227.458C486.096 227.458 487.951 226.964 489.392 225.976C490.847 224.988 491.921 223.587 492.615 221.772C493.309 219.957 493.656 217.808 493.656 215.326C493.656 211.549 492.862 208.599 491.274 206.477C489.699 204.342 487.237 203.274 483.887 203.274C481.618 203.274 479.749 203.761 478.281 204.735C476.813 205.71 475.719 207.098 474.998 208.899C474.291 210.688 473.937 212.83 473.937 215.326ZM526.648 230H522.725L506.769 205.416H506.609C506.649 206.07 506.696 206.817 506.749 207.658C506.802 208.486 506.842 209.373 506.869 210.321C506.909 211.255 506.929 212.209 506.929 213.184V230H503.766V200.731H507.67L523.565 225.235H523.706C523.679 224.768 523.646 224.108 523.605 223.253C523.565 222.386 523.525 221.458 523.485 220.471C523.459 219.47 523.445 218.542 523.445 217.688V200.731H526.648V230ZM538.04 230H534.636V200.731H550.932V203.734H538.04V214.465H550.151V217.448H538.04V230ZM572.113 230H555.817V200.731H572.113V203.734H559.22V213.204H571.372V216.167H559.22V226.997H572.113V230ZM586.507 200.731C588.909 200.731 590.891 201.032 592.453 201.632C594.028 202.22 595.202 203.12 595.976 204.335C596.75 205.549 597.137 207.098 597.137 208.979C597.137 210.528 596.857 211.822 596.296 212.863C595.736 213.891 595.002 214.725 594.094 215.366C593.187 216.006 592.219 216.5 591.191 216.847L599.219 230H595.255L588.088 217.788H582.002V230H578.599V200.731H586.507ZM586.307 203.674H582.002V214.905H586.647C589.036 214.905 590.791 214.418 591.912 213.444C593.047 212.47 593.614 211.035 593.614 209.14C593.614 207.151 593.013 205.743 591.812 204.916C590.624 204.088 588.789 203.674 586.307 203.674ZM620.2 230H603.904V200.731H620.2V203.734H607.307V213.204H619.459V216.167H607.307V226.997H620.2V230ZM649.568 230H645.645L629.689 205.416H629.529C629.569 206.07 629.616 206.817 629.669 207.658C629.722 208.486 629.762 209.373 629.789 210.321C629.829 211.255 629.849 212.209 629.849 213.184V230H626.686V200.731H630.59L646.485 225.235H646.625C646.599 224.768 646.565 224.108 646.525 223.253C646.485 222.386 646.445 221.458 646.405 220.471C646.379 219.47 646.365 218.542 646.365 217.688V200.731H649.568V230ZM670.068 203.314C668.453 203.314 666.999 203.594 665.704 204.155C664.423 204.702 663.328 205.503 662.421 206.557C661.527 207.598 660.839 208.859 660.359 210.341C659.878 211.822 659.638 213.491 659.638 215.346C659.638 217.801 660.019 219.937 660.779 221.752C661.553 223.554 662.701 224.948 664.223 225.936C665.757 226.924 667.673 227.417 669.968 227.417C671.276 227.417 672.504 227.311 673.652 227.097C674.813 226.87 675.941 226.59 677.035 226.256V229.219C675.967 229.62 674.846 229.913 673.672 230.1C672.497 230.3 671.103 230.4 669.488 230.4C666.512 230.4 664.022 229.786 662.021 228.559C660.032 227.317 658.537 225.569 657.536 223.313C656.549 221.058 656.055 218.395 656.055 215.326C656.055 213.11 656.362 211.088 656.976 209.26C657.603 207.418 658.51 205.83 659.698 204.495C660.899 203.16 662.368 202.133 664.103 201.412C665.851 200.678 667.853 200.311 670.108 200.311C671.59 200.311 673.018 200.458 674.393 200.751C675.767 201.045 677.008 201.465 678.116 202.013L676.755 204.896C675.821 204.468 674.793 204.101 673.672 203.794C672.564 203.474 671.363 203.314 670.068 203.314ZM683.381 230V200.731H686.785V230H683.381ZM690.608 237.708C689.941 237.708 689.354 237.661 688.847 237.567C688.34 237.474 687.906 237.347 687.545 237.187V234.284C687.972 234.418 688.433 234.518 688.927 234.584C689.421 234.665 689.954 234.705 690.528 234.705C691.276 234.705 691.963 234.558 692.59 234.264C693.218 233.971 693.718 233.47 694.092 232.763C694.465 232.055 694.652 231.081 694.652 229.84V200.731H698.076V229.58C698.076 231.408 697.769 232.923 697.155 234.124C696.554 235.325 695.693 236.219 694.572 236.807C693.465 237.407 692.143 237.708 690.608 237.708ZM724.201 230L720.598 220.711H708.866L705.283 230H701.839L713.291 200.611H716.354L727.725 230H724.201ZM719.577 217.688L716.153 208.459C716.073 208.219 715.94 207.825 715.753 207.278C715.579 206.731 715.399 206.163 715.212 205.576C715.026 204.989 714.872 204.515 714.752 204.155C714.618 204.702 714.472 205.249 714.312 205.796C714.165 206.33 714.018 206.831 713.871 207.298C713.724 207.752 713.597 208.139 713.491 208.459L710.007 217.688H719.577ZM767.824 215.326C767.824 217.581 767.537 219.637 766.963 221.492C766.389 223.333 765.535 224.922 764.4 226.256C763.279 227.578 761.885 228.599 760.216 229.319C758.548 230.04 756.613 230.4 754.411 230.4C752.142 230.4 750.16 230.04 748.465 229.319C746.783 228.599 745.382 227.571 744.261 226.236C743.153 224.902 742.319 223.307 741.758 221.452C741.211 219.597 740.938 217.541 740.938 215.286C740.938 212.296 741.431 209.674 742.419 207.418C743.407 205.162 744.901 203.407 746.903 202.153C748.919 200.898 751.441 200.271 754.471 200.271C757.367 200.271 759.803 200.892 761.778 202.133C763.766 203.374 765.268 205.122 766.282 207.378C767.31 209.62 767.824 212.269 767.824 215.326ZM744.521 215.326C744.521 217.808 744.875 219.957 745.582 221.772C746.289 223.587 747.37 224.988 748.825 225.976C750.293 226.964 752.155 227.458 754.411 227.458C756.68 227.458 758.535 226.964 759.976 225.976C761.431 224.988 762.505 223.587 763.199 221.772C763.893 219.957 764.24 217.808 764.24 215.326C764.24 211.549 763.446 208.599 761.858 206.477C760.283 204.342 757.821 203.274 754.471 203.274C752.202 203.274 750.333 203.761 748.865 204.735C747.397 205.71 746.303 207.098 745.582 208.899C744.875 210.688 744.521 212.83 744.521 215.326ZM801.517 222.212C801.517 223.947 801.083 225.429 800.215 226.657C799.361 227.871 798.16 228.799 796.612 229.439C795.064 230.08 793.242 230.4 791.146 230.4C790.039 230.4 788.991 230.347 788.003 230.24C787.016 230.133 786.108 229.98 785.281 229.78C784.453 229.58 783.726 229.333 783.099 229.039V225.776C784.1 226.19 785.321 226.577 786.762 226.937C788.204 227.284 789.712 227.458 791.287 227.458C792.755 227.458 793.996 227.264 795.01 226.877C796.025 226.477 796.792 225.909 797.312 225.175C797.846 224.428 798.113 223.534 798.113 222.493C798.113 221.492 797.893 220.658 797.453 219.99C797.012 219.31 796.278 218.696 795.25 218.148C794.236 217.588 792.848 216.994 791.086 216.367C789.845 215.926 788.751 215.446 787.803 214.925C786.856 214.391 786.062 213.791 785.421 213.124C784.78 212.456 784.293 211.682 783.959 210.801C783.639 209.92 783.479 208.913 783.479 207.778C783.479 206.217 783.873 204.882 784.66 203.774C785.461 202.653 786.562 201.799 787.963 201.212C789.378 200.611 791 200.311 792.828 200.311C794.39 200.311 795.831 200.458 797.152 200.751C798.487 201.045 799.708 201.439 800.816 201.933L799.755 204.855C798.701 204.415 797.579 204.048 796.392 203.754C795.217 203.461 794.003 203.314 792.748 203.314C791.493 203.314 790.432 203.501 789.565 203.875C788.711 204.235 788.057 204.749 787.603 205.416C787.149 206.083 786.922 206.877 786.922 207.798C786.922 208.826 787.136 209.68 787.563 210.361C788.003 211.042 788.697 211.649 789.645 212.183C790.606 212.703 791.874 213.25 793.449 213.824C795.17 214.451 796.632 215.119 797.833 215.826C799.034 216.52 799.948 217.374 800.576 218.389C801.203 219.39 801.517 220.664 801.517 222.212ZM807.502 230V200.731H810.906V230H807.502ZM831.466 214.665H841.696V228.859C840.161 229.379 838.579 229.766 836.951 230.02C835.336 230.274 833.528 230.4 831.526 230.4C828.483 230.4 825.914 229.793 823.818 228.579C821.736 227.364 820.155 225.636 819.074 223.394C817.993 221.138 817.452 218.462 817.452 215.366C817.452 212.336 818.046 209.694 819.234 207.438C820.435 205.182 822.163 203.434 824.419 202.193C826.688 200.938 829.41 200.311 832.587 200.311C834.215 200.311 835.757 200.465 837.211 200.771C838.68 201.065 840.041 201.486 841.295 202.033L839.994 204.996C838.913 204.528 837.719 204.128 836.411 203.794C835.116 203.461 833.775 203.294 832.387 203.294C829.998 203.294 827.949 203.788 826.241 204.775C824.546 205.763 823.244 207.158 822.337 208.959C821.443 210.761 820.996 212.897 820.996 215.366C820.996 217.808 821.389 219.937 822.177 221.752C822.964 223.554 824.192 224.955 825.86 225.956C827.529 226.957 829.677 227.458 832.307 227.458C833.628 227.458 834.762 227.384 835.71 227.237C836.658 227.077 837.518 226.89 838.292 226.677V217.708H831.466V214.665ZM870.924 200.731V219.67C870.924 221.739 870.504 223.58 869.663 225.195C868.836 226.81 867.581 228.085 865.899 229.019C864.218 229.94 862.109 230.4 859.573 230.4C855.956 230.4 853.2 229.419 851.305 227.458C849.423 225.496 848.482 222.873 848.482 219.59V200.731H851.906V219.69C851.906 222.172 852.56 224.088 853.868 225.436C855.189 226.784 857.158 227.458 859.773 227.458C861.562 227.458 863.023 227.137 864.158 226.497C865.306 225.843 866.153 224.935 866.7 223.774C867.261 222.599 867.541 221.245 867.541 219.71V200.731H870.924ZM886.6 200.731C889.002 200.731 890.984 201.032 892.545 201.632C894.12 202.22 895.295 203.12 896.069 204.335C896.843 205.549 897.23 207.098 897.23 208.979C897.23 210.528 896.95 211.822 896.389 212.863C895.829 213.891 895.095 214.725 894.187 215.366C893.279 216.006 892.312 216.5 891.284 216.847L899.312 230H895.348L888.181 217.788H882.095V230H878.692V200.731H886.6ZM886.399 203.674H882.095V214.905H886.74C889.129 214.905 890.884 214.418 892.005 213.444C893.139 212.47 893.707 211.035 893.707 209.14C893.707 207.151 893.106 205.743 891.905 204.916C890.717 204.088 888.882 203.674 886.399 203.674ZM926.879 230H922.955L907 205.416H906.839C906.879 206.07 906.926 206.817 906.979 207.658C907.033 208.486 907.073 209.373 907.1 210.321C907.14 211.255 907.16 212.209 907.16 213.184V230H903.997V200.731H907.9L923.796 225.235H923.936C923.909 224.768 923.876 224.108 923.836 223.253C923.796 222.386 923.756 221.458 923.716 220.471C923.689 219.47 923.676 218.542 923.676 217.688V200.731H926.879V230ZM960.251 215.326C960.251 217.581 959.965 219.637 959.391 221.492C958.817 223.333 957.963 224.922 956.828 226.256C955.707 227.578 954.312 228.599 952.644 229.319C950.976 230.04 949.041 230.4 946.838 230.4C944.569 230.4 942.588 230.04 940.893 229.319C939.211 228.599 937.81 227.571 936.688 226.236C935.581 224.902 934.747 223.307 934.186 221.452C933.639 219.597 933.365 217.541 933.365 215.286C933.365 212.296 933.859 209.674 934.847 207.418C935.834 205.162 937.329 203.407 939.331 202.153C941.346 200.898 943.869 200.271 946.898 200.271C949.795 200.271 952.23 200.892 954.206 202.133C956.194 203.374 957.696 205.122 958.71 207.378C959.738 209.62 960.251 212.269 960.251 215.326ZM936.949 215.326C936.949 217.808 937.302 219.957 938.01 221.772C938.717 223.587 939.798 224.988 941.253 225.976C942.721 226.964 944.583 227.458 946.838 227.458C949.107 227.458 950.962 226.964 952.404 225.976C953.859 224.988 954.933 223.587 955.627 221.772C956.321 219.957 956.668 217.808 956.668 215.326C956.668 211.549 955.874 208.599 954.286 206.477C952.711 204.342 950.248 203.274 946.898 203.274C944.63 203.274 942.761 203.761 941.293 204.735C939.825 205.71 938.73 207.098 938.01 208.899C937.302 210.688 936.949 212.83 936.949 215.326ZM983.294 222.212C983.294 223.947 982.86 225.429 981.993 226.657C981.139 227.871 979.937 228.799 978.389 229.439C976.841 230.08 975.019 230.4 972.924 230.4C971.816 230.4 970.768 230.347 969.781 230.24C968.793 230.133 967.886 229.98 967.058 229.78C966.231 229.58 965.503 229.333 964.876 229.039V225.776C965.877 226.19 967.098 226.577 968.54 226.937C969.981 227.284 971.489 227.458 973.064 227.458C974.532 227.458 975.773 227.264 976.788 226.877C977.802 226.477 978.569 225.909 979.09 225.175C979.624 224.428 979.891 223.534 979.891 222.493C979.891 221.492 979.67 220.658 979.23 219.99C978.79 219.31 978.056 218.696 977.028 218.148C976.014 217.588 974.625 216.994 972.864 216.367C971.623 215.926 970.528 215.446 969.581 214.925C968.633 214.391 967.839 213.791 967.198 213.124C966.558 212.456 966.07 211.682 965.737 210.801C965.417 209.92 965.256 208.913 965.256 207.778C965.256 206.217 965.65 204.882 966.438 203.774C967.238 202.653 968.339 201.799 969.741 201.212C971.155 200.611 972.777 200.311 974.605 200.311C976.167 200.311 977.608 200.458 978.93 200.751C980.264 201.045 981.486 201.439 982.593 201.933L981.532 204.855C980.478 204.415 979.357 204.048 978.169 203.754C976.994 203.461 975.78 203.314 974.525 203.314C973.271 203.314 972.21 203.501 971.342 203.875C970.488 204.235 969.834 204.749 969.38 205.416C968.927 206.083 968.7 206.877 968.7 207.798C968.7 208.826 968.913 209.68 969.34 210.361C969.781 211.042 970.475 211.649 971.422 212.183C972.383 212.703 973.651 213.25 975.226 213.824C976.948 214.451 978.409 215.119 979.61 215.826C980.812 216.52 981.726 217.374 982.353 218.389C982.98 219.39 983.294 220.664 983.294 222.212ZM998.269 230H994.845V203.734H985.636V200.731H1007.44V203.734H998.269V230ZM1011.86 230V200.731H1015.27V230H1011.86Z" fill="#F5F5F5" fill-opacity="0.8"/>
<defs>
<clipPath id="clip0_146_148">
<rect width="996" height="156" fill="white" transform="translate(18)"/>
</clipPath>
</defs>
</svg>
