<svg width="245" height="113" viewBox="0 0 245 113" fill="none" xmlns="http://www.w3.org/2000/svg">
<path d="M176.962 0.145508C178.356 0.188686 179.794 0.188686 181.232 0.275043C185.414 0.490934 189.552 1.00907 193.56 2.21807C196.131 2.99528 198.57 4.07473 200.574 5.88822C202.317 7.44264 203.45 9.29931 203.668 11.7173C196.305 11.7173 188.986 11.7173 181.667 11.7173C181.101 10.6378 180.055 10.2492 178.923 10.1197C177.136 9.99016 175.307 9.99016 173.52 9.99016C172.823 9.99016 172.126 10.2061 171.473 10.3788C170.95 10.5515 170.514 10.8537 170.95 11.6741C171.473 11.8037 172.083 12.0627 172.736 12.1491C174.566 12.365 176.439 12.5809 178.313 12.6672C183.802 12.9695 189.291 13.2285 194.693 14.2648C197.046 14.6966 199.398 15.2579 201.489 16.5101C203.232 17.5032 204.408 18.9281 204.626 21.0006C204.626 21.087 204.713 21.2165 204.713 21.4324C204.757 21.9937 204.8 22.0369 204.713 22.5982C204.67 22.9437 204.626 23.0732 204.626 23.1164C204.103 25.7502 202.361 27.391 200.095 28.4273C198.135 29.334 196.087 30.0681 194.04 30.5862C189.03 31.752 183.933 32.0543 178.835 32.0543C178.443 32.0543 178.095 32.0975 177.659 32.0543C177.311 32.0975 177.006 32.0975 176.657 32.0975C176.222 32.0975 175.873 32.0543 175.481 32.0543C170.34 32.0111 165.2 31.6657 160.19 30.4135C157.837 29.809 155.615 29.0318 153.568 27.7364C150.997 26.0957 149.298 23.8936 148.95 20.8279C148.95 20.6984 148.993 20.612 148.993 20.4393C156.312 20.4393 163.631 20.4393 171.037 20.4393C171.604 21.6051 172.736 21.9074 173.913 22.0801C176.265 22.4255 178.618 22.3823 180.97 22.0801C181.667 21.9937 182.451 21.9074 182.887 21.1302C182.756 20.5257 182.234 20.3098 181.711 20.2234C180.273 20.0075 178.835 19.7916 177.398 19.6621C173.738 19.403 170.122 19.2735 166.463 18.9713C162.716 18.669 159.013 18.194 155.441 16.9419C154.57 16.6396 153.785 16.251 152.958 15.8192C148.601 13.574 148.732 7.9176 151.869 5.24055C153.785 3.64295 155.964 2.64985 158.316 2.00218C163.588 0.534113 168.99 0.188686 174.435 0.145508" fill="#FF0030"/>
<path fill-rule="evenodd" clip-rule="evenodd" d="M63.3004 28.0389C62.7777 29.0752 62.2985 30.1115 61.8192 31.1909C54.9795 31.1909 48.1833 31.1909 41.2129 31.1909C46.4843 21.1304 51.7557 11.113 57.0271 1.00928C65.2609 1.00928 73.4947 1.00928 81.8592 1.00928C86.9999 10.8539 92.2277 20.7849 97.4556 30.6728C97.5136 30.6728 97.5717 30.6584 97.6298 30.6296C97.6298 20.7849 97.6298 10.9403 97.6298 1.05246C104.47 1.05246 111.222 1.05246 118.105 1.05246C118.105 4.21887 118.105 7.41406 118.105 10.638C118.164 10.6668 118.222 10.6956 118.28 10.7244C121.62 7.50042 124.945 4.26204 128.256 1.00928C136.272 1.00928 144.245 1.00928 152.435 1.00928C148.035 5.37029 143.722 9.55858 139.365 13.8764C143.809 19.6191 148.296 25.3618 152.827 31.1909C144.811 31.1909 136.969 31.1909 128.997 31.1909C126.499 27.8518 123.958 24.4407 121.373 20.9577C120.284 21.8212 119.238 22.6416 118.149 23.5052C118.149 26.0095 118.149 28.557 118.149 31.1477C104.47 31.1477 90.8337 31.1477 77.1106 31.1477C76.6314 30.1978 76.1522 29.1184 75.6294 28.0389C71.5343 28.0389 67.3956 28.0389 63.3004 28.0389ZM66.655 18.6692C68.6154 18.6692 70.358 18.6692 72.2749 18.6692C71.3164 16.4671 70.4451 14.3946 69.4431 12.0629C68.4847 14.3946 67.6134 16.4671 66.655 18.6692Z" fill="#FF0030"/>
<path d="M43.3038 23.4186C35.3749 23.4186 27.5332 23.4186 19.6043 23.4186C19.6043 26.0525 19.6043 28.6 19.6043 31.1907C13.026 31.1907 6.53478 31.1907 0 31.1907C0 21.1733 0 11.1128 0 1.05225C14.6815 1.05225 29.3194 1.05225 44.0444 1.05225C44.0444 4.54969 44.0444 8.09031 44.0444 11.7173C35.9413 11.7173 27.8382 11.7173 19.6479 11.7173C19.6479 12.5377 19.6479 13.2717 19.6479 14.0921C27.5332 14.0921 35.3749 14.0921 43.3038 14.0921C43.3038 17.2009 43.3038 20.2234 43.3038 23.4186Z" fill="#FF0030"/>
<path d="M3.25195 56.0977H1.75781V43.248H8.91211V44.5664H3.25195V49.2773H8.56934V50.5869H3.25195V56.0977ZM18.2109 56.0977H11.0566V43.248H18.2109V44.5664H12.5508V48.7236H17.8857V50.0244H12.5508V54.7793H18.2109V56.0977ZM24.5303 43.248C25.585 43.248 26.4551 43.3799 27.1406 43.6436C27.832 43.9014 28.3477 44.2969 28.6875 44.8301C29.0273 45.3633 29.1973 46.043 29.1973 46.8691C29.1973 47.5488 29.0742 48.1172 28.8281 48.5742C28.582 49.0254 28.2598 49.3916 27.8613 49.6729C27.4629 49.9541 27.0381 50.1709 26.5869 50.3232L30.1113 56.0977H28.3711L25.2246 50.7363H22.5527V56.0977H21.0586V43.248H24.5303ZM24.4424 44.54H22.5527V49.4707H24.5918C25.6406 49.4707 26.4111 49.2568 26.9033 48.8291C27.4014 48.4014 27.6504 47.7715 27.6504 46.9395C27.6504 46.0664 27.3867 45.4482 26.8594 45.085C26.3379 44.7217 25.5322 44.54 24.4424 44.54ZM31.1309 51.9141V50.6133H35.4902V51.9141H31.1309ZM49.1133 49.6553C49.1133 50.6455 48.9873 51.5479 48.7354 52.3623C48.4834 53.1709 48.1084 53.8682 47.6104 54.4541C47.1182 55.0342 46.5059 55.4824 45.7734 55.7988C45.041 56.1152 44.1914 56.2734 43.2246 56.2734C42.2285 56.2734 41.3584 56.1152 40.6143 55.7988C39.876 55.4824 39.2607 55.0312 38.7686 54.4453C38.2822 53.8594 37.916 53.1592 37.6699 52.3447C37.4297 51.5303 37.3096 50.6279 37.3096 49.6377C37.3096 48.3252 37.5264 47.1738 37.96 46.1836C38.3936 45.1934 39.0498 44.4229 39.9287 43.8721C40.8135 43.3213 41.9209 43.0459 43.251 43.0459C44.5225 43.0459 45.5918 43.3184 46.459 43.8633C47.332 44.4082 47.9912 45.1758 48.4365 46.166C48.8877 47.1504 49.1133 48.3135 49.1133 49.6553ZM38.8828 49.6553C38.8828 50.7451 39.0381 51.6885 39.3486 52.4854C39.6592 53.2822 40.1338 53.8975 40.7725 54.3311C41.417 54.7646 42.2344 54.9814 43.2246 54.9814C44.2207 54.9814 45.0352 54.7646 45.668 54.3311C46.3066 53.8975 46.7783 53.2822 47.083 52.4854C47.3877 51.6885 47.54 50.7451 47.54 49.6553C47.54 47.9971 47.1914 46.7021 46.4941 45.7705C45.8027 44.833 44.7217 44.3643 43.251 44.3643C42.2549 44.3643 41.4346 44.5781 40.79 45.0059C40.1455 45.4336 39.665 46.043 39.3486 46.834C39.0381 47.6191 38.8828 48.5596 38.8828 49.6553ZM60.9521 43.248L56.3379 56.0977H54.835L50.2207 43.248H51.7852L54.791 51.7119C54.9141 52.0518 55.0225 52.377 55.1162 52.6875C55.2158 52.998 55.3037 53.2969 55.3799 53.584C55.4561 53.8711 55.5234 54.1494 55.582 54.4189C55.6406 54.1494 55.708 53.8711 55.7842 53.584C55.8604 53.291 55.9482 52.9893 56.0479 52.6787C56.1475 52.3623 56.2588 52.0312 56.3818 51.6855L59.3701 43.248H60.9521ZM70.7783 56.0977L69.1963 52.0195H64.0459L62.4727 56.0977H60.9609L65.9883 43.1953H67.333L72.3252 56.0977H70.7783ZM68.748 50.6924L67.2451 46.6406C67.21 46.5352 67.1514 46.3623 67.0693 46.1221C66.9932 45.8818 66.9141 45.6328 66.832 45.375C66.75 45.1172 66.6826 44.9092 66.6299 44.751C66.5713 44.9912 66.5068 45.2314 66.4365 45.4717C66.3721 45.7061 66.3076 45.9258 66.2432 46.1309C66.1787 46.3301 66.123 46.5 66.0762 46.6406L64.5469 50.6924H68.748ZM86.8447 56.0977L85.2627 52.0195H80.1123L78.5391 56.0977H77.0273L82.0547 43.1953H83.3994L88.3916 56.0977H86.8447ZM84.8145 50.6924L83.3115 46.6406C83.2764 46.5352 83.2178 46.3623 83.1357 46.1221C83.0596 45.8818 82.9805 45.6328 82.8984 45.375C82.8164 45.1172 82.749 44.9092 82.6963 44.751C82.6377 44.9912 82.5732 45.2314 82.5029 45.4717C82.4385 45.7061 82.374 45.9258 82.3096 46.1309C82.2451 46.3301 82.1895 46.5 82.1426 46.6406L80.6133 50.6924H84.8145ZM99.4395 56.0977H97.6729L93.041 49.8486L91.6699 51.0791V56.0977H90.1758V43.248H91.6699V49.6553C92.0039 49.2744 92.3467 48.8965 92.6982 48.5215C93.0498 48.1406 93.3984 47.7568 93.7441 47.3701L97.4971 43.248H99.2461L94.1309 48.8203L99.4395 56.0977ZM109.257 56.0977L107.675 52.0195H102.524L100.951 56.0977H99.4395L104.467 43.1953H105.812L110.804 56.0977H109.257ZM107.227 50.6924L105.724 46.6406C105.688 46.5352 105.63 46.3623 105.548 46.1221C105.472 45.8818 105.393 45.6328 105.311 45.375C105.229 45.1172 105.161 44.9092 105.108 44.751C105.05 44.9912 104.985 45.2314 104.915 45.4717C104.851 45.7061 104.786 45.9258 104.722 46.1309C104.657 46.3301 104.602 46.5 104.555 46.6406L103.025 50.6924H107.227ZM122.792 49.5498C122.792 50.9971 122.528 52.207 122.001 53.1797C121.474 54.1465 120.709 54.876 119.707 55.3682C118.711 55.8545 117.501 56.0977 116.077 56.0977H112.588V43.248H116.464C117.771 43.248 118.896 43.4883 119.839 43.9688C120.782 44.4434 121.509 45.1494 122.019 46.0869C122.534 47.0186 122.792 48.1729 122.792 49.5498ZM121.219 49.6025C121.219 48.4482 121.025 47.4961 120.639 46.7461C120.258 45.9961 119.695 45.4395 118.951 45.0762C118.213 44.707 117.308 44.5225 116.235 44.5225H114.082V54.8145H115.901C117.671 54.8145 118.998 54.3779 119.883 53.5049C120.773 52.6318 121.219 51.3311 121.219 49.6025ZM132.803 56.0977H125.648V43.248H132.803V44.5664H127.143V48.7236H132.478V50.0244H127.143V54.7793H132.803V56.0977ZM141.302 56.0977L136.986 44.7246H136.916C136.939 44.9648 136.96 45.2578 136.978 45.6035C136.995 45.9492 137.01 46.3271 137.021 46.7373C137.033 47.1416 137.039 47.5547 137.039 47.9766V56.0977H135.65V43.248H137.865L141.935 53.9355H141.996L146.127 43.248H148.324V56.0977H146.848V47.8711C146.848 47.4902 146.854 47.1094 146.865 46.7285C146.877 46.3418 146.892 45.9785 146.909 45.6387C146.927 45.293 146.944 44.9941 146.962 44.7422H146.892L142.523 56.0977H141.302ZM159.091 52.6787C159.091 53.4404 158.9 54.0908 158.52 54.6299C158.145 55.1631 157.617 55.5703 156.938 55.8516C156.258 56.1328 155.458 56.2734 154.538 56.2734C154.052 56.2734 153.592 56.25 153.158 56.2031C152.725 56.1562 152.326 56.0889 151.963 56.001C151.6 55.9131 151.28 55.8047 151.005 55.6758V54.2432C151.444 54.4248 151.98 54.5947 152.613 54.7529C153.246 54.9053 153.908 54.9814 154.6 54.9814C155.244 54.9814 155.789 54.8965 156.234 54.7266C156.68 54.5508 157.017 54.3018 157.245 53.9795C157.479 53.6514 157.597 53.2588 157.597 52.8018C157.597 52.3623 157.5 51.9961 157.307 51.7031C157.113 51.4043 156.791 51.1348 156.34 50.8945C155.895 50.6484 155.285 50.3877 154.512 50.1123C153.967 49.9189 153.486 49.708 153.07 49.4795C152.654 49.2451 152.306 48.9814 152.024 48.6885C151.743 48.3955 151.529 48.0557 151.383 47.6689C151.242 47.2822 151.172 46.8398 151.172 46.3418C151.172 45.6562 151.345 45.0703 151.69 44.584C152.042 44.0918 152.525 43.7168 153.141 43.459C153.762 43.1953 154.474 43.0635 155.276 43.0635C155.962 43.0635 156.595 43.1279 157.175 43.2568C157.761 43.3857 158.297 43.5586 158.783 43.7754L158.317 45.0586C157.854 44.8652 157.362 44.7041 156.841 44.5752C156.325 44.4463 155.792 44.3818 155.241 44.3818C154.69 44.3818 154.225 44.4639 153.844 44.6279C153.469 44.7861 153.182 45.0117 152.982 45.3047C152.783 45.5977 152.684 45.9463 152.684 46.3506C152.684 46.8018 152.777 47.1768 152.965 47.4756C153.158 47.7744 153.463 48.041 153.879 48.2754C154.301 48.5039 154.857 48.7441 155.549 48.9961C156.305 49.2715 156.946 49.5645 157.474 49.875C158.001 50.1797 158.402 50.5547 158.678 51C158.953 51.4395 159.091 51.999 159.091 52.6787ZM170.982 56.0977H169.216L164.584 49.8486L163.213 51.0791V56.0977H161.719V43.248H163.213V49.6553C163.547 49.2744 163.89 48.8965 164.241 48.5215C164.593 48.1406 164.941 47.7568 165.287 47.3701L169.04 43.248H170.789L165.674 48.8203L170.982 56.0977ZM180.8 56.0977L179.218 52.0195H174.067L172.494 56.0977H170.982L176.01 43.1953H177.354L182.347 56.0977H180.8ZM178.77 50.6924L177.267 46.6406C177.231 46.5352 177.173 46.3623 177.091 46.1221C177.015 45.8818 176.936 45.6328 176.854 45.375C176.771 45.1172 176.704 44.9092 176.651 44.751C176.593 44.9912 176.528 45.2314 176.458 45.4717C176.394 45.7061 176.329 45.9258 176.265 46.1309C176.2 46.3301 176.145 46.5 176.098 46.6406L174.568 50.6924H178.77ZM11.0215 81.0977H9.25488L4.62305 74.8486L3.25195 76.0791V81.0977H1.75781V68.248H3.25195V74.6553C3.58594 74.2744 3.92871 73.8965 4.28027 73.5215C4.63184 73.1406 4.98047 72.7568 5.32617 72.3701L9.0791 68.248H10.8281L5.71289 73.8203L11.0215 81.0977ZM23.9238 74.6553C23.9238 75.6455 23.7979 76.5479 23.5459 77.3623C23.2939 78.1709 22.9189 78.8682 22.4209 79.4541C21.9287 80.0342 21.3164 80.4824 20.584 80.7988C19.8516 81.1152 19.002 81.2734 18.0352 81.2734C17.0391 81.2734 16.1689 81.1152 15.4248 80.7988C14.6865 80.4824 14.0713 80.0312 13.5791 79.4453C13.0928 78.8594 12.7266 78.1592 12.4805 77.3447C12.2402 76.5303 12.1201 75.6279 12.1201 74.6377C12.1201 73.3252 12.3369 72.1738 12.7705 71.1836C13.2041 70.1934 13.8604 69.4229 14.7393 68.8721C15.624 68.3213 16.7314 68.0459 18.0615 68.0459C19.333 68.0459 20.4023 68.3184 21.2695 68.8633C22.1426 69.4082 22.8018 70.1758 23.2471 71.166C23.6982 72.1504 23.9238 73.3135 23.9238 74.6553ZM13.6934 74.6553C13.6934 75.7451 13.8486 76.6885 14.1592 77.4854C14.4697 78.2822 14.9443 78.8975 15.583 79.3311C16.2275 79.7646 17.0449 79.9814 18.0352 79.9814C19.0312 79.9814 19.8457 79.7646 20.4785 79.3311C21.1172 78.8975 21.5889 78.2822 21.8936 77.4854C22.1982 76.6885 22.3506 75.7451 22.3506 74.6553C22.3506 72.9971 22.002 71.7021 21.3047 70.7705C20.6133 69.833 19.5322 69.3643 18.0615 69.3643C17.0654 69.3643 16.2451 69.5781 15.6006 70.0059C14.9561 70.4336 14.4756 71.043 14.1592 71.834C13.8486 72.6191 13.6934 73.5596 13.6934 74.6553ZM36.835 81.0977H35.1123L28.1074 70.3047H28.0371C28.0547 70.5918 28.0752 70.9199 28.0986 71.2891C28.1221 71.6523 28.1396 72.042 28.1514 72.458C28.1689 72.8682 28.1777 73.2871 28.1777 73.7148V81.0977H26.7891V68.248H28.5029L35.4814 79.0059H35.543C35.5312 78.8008 35.5166 78.5107 35.499 78.1357C35.4814 77.7549 35.4639 77.3477 35.4463 76.9141C35.4346 76.4746 35.4287 76.0674 35.4287 75.6924V68.248H36.835V81.0977ZM41.8359 81.0977H40.3418V68.248H47.4961V69.5664H41.8359V74.2773H47.1533V75.5869H41.8359V81.0977ZM56.7949 81.0977H49.6406V68.248H56.7949V69.5664H51.1348V73.7236H56.4697V75.0244H51.1348V79.7793H56.7949V81.0977ZM63.1143 68.248C64.1689 68.248 65.0391 68.3799 65.7246 68.6436C66.416 68.9014 66.9316 69.2969 67.2715 69.8301C67.6113 70.3633 67.7812 71.043 67.7812 71.8691C67.7812 72.5488 67.6582 73.1172 67.4121 73.5742C67.166 74.0254 66.8438 74.3916 66.4453 74.6729C66.0469 74.9541 65.6221 75.1709 65.1709 75.3232L68.6953 81.0977H66.9551L63.8086 75.7363H61.1367V81.0977H59.6426V68.248H63.1143ZM63.0264 69.54H61.1367V74.4707H63.1758C64.2246 74.4707 64.9951 74.2568 65.4873 73.8291C65.9854 73.4014 66.2344 72.7715 66.2344 71.9395C66.2344 71.0664 65.9707 70.4482 65.4434 70.085C64.9219 69.7217 64.1162 69.54 63.0264 69.54ZM77.9062 81.0977H70.752V68.248H77.9062V69.5664H72.2461V73.7236H77.5811V75.0244H72.2461V79.7793H77.9062V81.0977ZM90.7998 81.0977H89.0771L82.0723 70.3047H82.002C82.0195 70.5918 82.04 70.9199 82.0635 71.2891C82.0869 71.6523 82.1045 72.042 82.1162 72.458C82.1338 72.8682 82.1426 73.2871 82.1426 73.7148V81.0977H80.7539V68.248H82.4678L89.4463 79.0059H89.5078C89.4961 78.8008 89.4814 78.5107 89.4639 78.1357C89.4463 77.7549 89.4287 77.3477 89.4111 76.9141C89.3994 76.4746 89.3936 76.0674 89.3936 75.6924V68.248H90.7998V81.0977ZM99.7998 69.3818C99.0908 69.3818 98.4521 69.5049 97.8838 69.751C97.3213 69.9912 96.8408 70.3428 96.4424 70.8057C96.0498 71.2627 95.748 71.8164 95.5371 72.4668C95.3262 73.1172 95.2207 73.8496 95.2207 74.6641C95.2207 75.7422 95.3877 76.6797 95.7217 77.4766C96.0615 78.2676 96.5654 78.8799 97.2334 79.3135C97.9072 79.7471 98.748 79.9639 99.7559 79.9639C100.33 79.9639 100.869 79.917 101.373 79.8232C101.883 79.7236 102.378 79.6006 102.858 79.4541V80.7549C102.39 80.9307 101.897 81.0596 101.382 81.1416C100.866 81.2295 100.254 81.2734 99.5449 81.2734C98.2383 81.2734 97.1455 81.0039 96.2666 80.4648C95.3936 79.9199 94.7373 79.1523 94.2979 78.1621C93.8643 77.1719 93.6475 76.0029 93.6475 74.6553C93.6475 73.6826 93.7822 72.7949 94.0518 71.9922C94.3271 71.1836 94.7256 70.4863 95.2471 69.9004C95.7744 69.3145 96.4189 68.8633 97.1807 68.5469C97.9482 68.2246 98.8271 68.0635 99.8174 68.0635C100.468 68.0635 101.095 68.1279 101.698 68.2568C102.302 68.3857 102.847 68.5703 103.333 68.8105L102.735 70.0762C102.325 69.8887 101.874 69.7275 101.382 69.5928C100.896 69.4521 100.368 69.3818 99.7998 69.3818ZM105.645 81.0977V68.248H107.139V81.0977H105.645ZM108.817 84.4814C108.524 84.4814 108.267 84.4609 108.044 84.4199C107.821 84.3789 107.631 84.3232 107.473 84.2529V82.9785C107.66 83.0371 107.862 83.0811 108.079 83.1104C108.296 83.1455 108.53 83.1631 108.782 83.1631C109.11 83.1631 109.412 83.0986 109.688 82.9697C109.963 82.8408 110.183 82.6211 110.347 82.3105C110.511 82 110.593 81.5723 110.593 81.0273V68.248H112.096V80.9131C112.096 81.7158 111.961 82.3809 111.691 82.9082C111.428 83.4355 111.05 83.8281 110.558 84.0859C110.071 84.3496 109.491 84.4814 108.817 84.4814ZM123.565 81.0977L121.983 77.0195H116.833L115.26 81.0977H113.748L118.775 68.1953H120.12L125.112 81.0977H123.565ZM121.535 75.6924L120.032 71.6406C119.997 71.5352 119.938 71.3623 119.856 71.1221C119.78 70.8818 119.701 70.6328 119.619 70.375C119.537 70.1172 119.47 69.9092 119.417 69.751C119.358 69.9912 119.294 70.2314 119.224 70.4717C119.159 70.7061 119.095 70.9258 119.03 71.1309C118.966 71.3301 118.91 71.5 118.863 71.6406L117.334 75.6924H121.535ZM142.717 74.6553C142.717 75.6455 142.591 76.5479 142.339 77.3623C142.087 78.1709 141.712 78.8682 141.214 79.4541C140.722 80.0342 140.109 80.4824 139.377 80.7988C138.645 81.1152 137.795 81.2734 136.828 81.2734C135.832 81.2734 134.962 81.1152 134.218 80.7988C133.479 80.4824 132.864 80.0312 132.372 79.4453C131.886 78.8594 131.52 78.1592 131.273 77.3447C131.033 76.5303 130.913 75.6279 130.913 74.6377C130.913 73.3252 131.13 72.1738 131.563 71.1836C131.997 70.1934 132.653 69.4229 133.532 68.8721C134.417 68.3213 135.524 68.0459 136.854 68.0459C138.126 68.0459 139.195 68.3184 140.062 68.8633C140.936 69.4082 141.595 70.1758 142.04 71.166C142.491 72.1504 142.717 73.3135 142.717 74.6553ZM132.486 74.6553C132.486 75.7451 132.642 76.6885 132.952 77.4854C133.263 78.2822 133.737 78.8975 134.376 79.3311C135.021 79.7646 135.838 79.9814 136.828 79.9814C137.824 79.9814 138.639 79.7646 139.271 79.3311C139.91 78.8975 140.382 78.2822 140.687 77.4854C140.991 76.6885 141.144 75.7451 141.144 74.6553C141.144 72.9971 140.795 71.7021 140.098 70.7705C139.406 69.833 138.325 69.3643 136.854 69.3643C135.858 69.3643 135.038 69.5781 134.394 70.0059C133.749 70.4336 133.269 71.043 132.952 71.834C132.642 72.6191 132.486 73.5596 132.486 74.6553ZM9.00879 102.679C9.00879 103.44 8.81836 104.091 8.4375 104.63C8.0625 105.163 7.53516 105.57 6.85547 105.852C6.17578 106.133 5.37598 106.273 4.45605 106.273C3.96973 106.273 3.50977 106.25 3.07617 106.203C2.64258 106.156 2.24414 106.089 1.88086 106.001C1.51758 105.913 1.19824 105.805 0.922852 105.676V104.243C1.3623 104.425 1.89844 104.595 2.53125 104.753C3.16406 104.905 3.82617 104.981 4.51758 104.981C5.16211 104.981 5.70703 104.896 6.15234 104.727C6.59766 104.551 6.93457 104.302 7.16309 103.979C7.39746 103.651 7.51465 103.259 7.51465 102.802C7.51465 102.362 7.41797 101.996 7.22461 101.703C7.03125 101.404 6.70898 101.135 6.25781 100.895C5.8125 100.648 5.20312 100.388 4.42969 100.112C3.88477 99.9189 3.4043 99.708 2.98828 99.4795C2.57227 99.2451 2.22363 98.9814 1.94238 98.6885C1.66113 98.3955 1.44727 98.0557 1.30078 97.6689C1.16016 97.2822 1.08984 96.8398 1.08984 96.3418C1.08984 95.6562 1.2627 95.0703 1.6084 94.584C1.95996 94.0918 2.44336 93.7168 3.05859 93.459C3.67969 93.1953 4.3916 93.0635 5.19434 93.0635C5.87988 93.0635 6.5127 93.1279 7.09277 93.2568C7.67871 93.3857 8.21484 93.5586 8.70117 93.7754L8.23535 95.0586C7.77246 94.8652 7.28027 94.7041 6.75879 94.5752C6.24316 94.4463 5.70996 94.3818 5.15918 94.3818C4.6084 94.3818 4.14258 94.4639 3.76172 94.6279C3.38672 94.7861 3.09961 95.0117 2.90039 95.3047C2.70117 95.5977 2.60156 95.9463 2.60156 96.3506C2.60156 96.8018 2.69531 97.1768 2.88281 97.4756C3.07617 97.7744 3.38086 98.041 3.79688 98.2754C4.21875 98.5039 4.77539 98.7441 5.4668 98.9961C6.22266 99.2715 6.86426 99.5645 7.3916 99.875C7.91895 100.18 8.32031 100.555 8.5957 101C8.87109 101.439 9.00879 101.999 9.00879 102.679ZM11.6367 106.098V93.248H13.1309V106.098H11.6367ZM22.1572 99.3652H26.6484V105.597C25.9746 105.825 25.2803 105.995 24.5654 106.106C23.8564 106.218 23.0625 106.273 22.1836 106.273C20.8477 106.273 19.7197 106.007 18.7998 105.474C17.8857 104.94 17.1914 104.182 16.7168 103.197C16.2422 102.207 16.0049 101.032 16.0049 99.6729C16.0049 98.3428 16.2656 97.1826 16.7871 96.1924C17.3145 95.2021 18.0732 94.4346 19.0635 93.8896C20.0596 93.3389 21.2549 93.0635 22.6494 93.0635C23.3643 93.0635 24.041 93.1309 24.6797 93.2656C25.3242 93.3945 25.9219 93.5791 26.4727 93.8193L25.9014 95.1201C25.4268 94.915 24.9023 94.7393 24.3281 94.5928C23.7598 94.4463 23.1709 94.373 22.5615 94.373C21.5127 94.373 20.6133 94.5898 19.8633 95.0234C19.1191 95.457 18.5479 96.0693 18.1494 96.8604C17.7568 97.6514 17.5605 98.5889 17.5605 99.6729C17.5605 100.745 17.7334 101.68 18.0791 102.477C18.4248 103.268 18.9639 103.883 19.6963 104.322C20.4287 104.762 21.3721 104.981 22.5264 104.981C23.1064 104.981 23.6045 104.949 24.0205 104.885C24.4365 104.814 24.8145 104.732 25.1543 104.639V100.701H22.1572V99.3652ZM39.4805 93.248V101.562C39.4805 102.471 39.2959 103.279 38.9268 103.988C38.5635 104.697 38.0127 105.257 37.2744 105.667C36.5361 106.071 35.6104 106.273 34.4971 106.273C32.9092 106.273 31.6992 105.843 30.8672 104.981C30.041 104.12 29.6279 102.969 29.6279 101.527V93.248H31.1309V101.571C31.1309 102.661 31.418 103.502 31.9922 104.094C32.5723 104.686 33.4365 104.981 34.585 104.981C35.3701 104.981 36.0117 104.841 36.5098 104.56C37.0137 104.272 37.3857 103.874 37.626 103.364C37.8721 102.849 37.9951 102.254 37.9951 101.58V93.248H39.4805ZM46.3623 93.248C47.417 93.248 48.2871 93.3799 48.9727 93.6436C49.6641 93.9014 50.1797 94.2969 50.5195 94.8301C50.8594 95.3633 51.0293 96.043 51.0293 96.8691C51.0293 97.5488 50.9062 98.1172 50.6602 98.5742C50.4141 99.0254 50.0918 99.3916 49.6934 99.6729C49.2949 99.9541 48.8701 100.171 48.4189 100.323L51.9434 106.098H50.2031L47.0566 100.736H44.3848V106.098H42.8906V93.248H46.3623ZM46.2744 94.54H44.3848V99.4707H46.4238C47.4727 99.4707 48.2432 99.2568 48.7354 98.8291C49.2334 98.4014 49.4824 97.7715 49.4824 96.9395C49.4824 96.0664 49.2188 95.4482 48.6914 95.085C48.1699 94.7217 47.3643 94.54 46.2744 94.54ZM64.0459 106.098H62.3232L55.3184 95.3047H55.248C55.2656 95.5918 55.2861 95.9199 55.3096 96.2891C55.333 96.6523 55.3506 97.042 55.3623 97.458C55.3799 97.8682 55.3887 98.2871 55.3887 98.7148V106.098H54V93.248H55.7139L62.6924 104.006H62.7539C62.7422 103.801 62.7275 103.511 62.71 103.136C62.6924 102.755 62.6748 102.348 62.6572 101.914C62.6455 101.475 62.6396 101.067 62.6396 100.692V93.248H64.0459V106.098ZM78.6973 99.6553C78.6973 100.646 78.5713 101.548 78.3193 102.362C78.0674 103.171 77.6924 103.868 77.1943 104.454C76.7021 105.034 76.0898 105.482 75.3574 105.799C74.625 106.115 73.7754 106.273 72.8086 106.273C71.8125 106.273 70.9424 106.115 70.1982 105.799C69.46 105.482 68.8447 105.031 68.3525 104.445C67.8662 103.859 67.5 103.159 67.2539 102.345C67.0137 101.53 66.8936 100.628 66.8936 99.6377C66.8936 98.3252 67.1104 97.1738 67.5439 96.1836C67.9775 95.1934 68.6338 94.4229 69.5127 93.8721C70.3975 93.3213 71.5049 93.0459 72.835 93.0459C74.1064 93.0459 75.1758 93.3184 76.043 93.8633C76.916 94.4082 77.5752 95.1758 78.0205 96.166C78.4717 97.1504 78.6973 98.3135 78.6973 99.6553ZM68.4668 99.6553C68.4668 100.745 68.6221 101.688 68.9326 102.485C69.2432 103.282 69.7178 103.897 70.3564 104.331C71.001 104.765 71.8184 104.981 72.8086 104.981C73.8047 104.981 74.6191 104.765 75.252 104.331C75.8906 103.897 76.3623 103.282 76.667 102.485C76.9717 101.688 77.124 100.745 77.124 99.6553C77.124 97.9971 76.7754 96.7021 76.0781 95.7705C75.3867 94.833 74.3057 94.3643 72.835 94.3643C71.8389 94.3643 71.0186 94.5781 70.374 95.0059C69.7295 95.4336 69.249 96.043 68.9326 96.834C68.6221 97.6191 68.4668 98.5596 68.4668 99.6553ZM88.8135 102.679C88.8135 103.44 88.623 104.091 88.2422 104.63C87.8672 105.163 87.3398 105.57 86.6602 105.852C85.9805 106.133 85.1807 106.273 84.2607 106.273C83.7744 106.273 83.3145 106.25 82.8809 106.203C82.4473 106.156 82.0488 106.089 81.6855 106.001C81.3223 105.913 81.0029 105.805 80.7275 105.676V104.243C81.167 104.425 81.7031 104.595 82.3359 104.753C82.9688 104.905 83.6309 104.981 84.3223 104.981C84.9668 104.981 85.5117 104.896 85.957 104.727C86.4023 104.551 86.7393 104.302 86.9678 103.979C87.2021 103.651 87.3193 103.259 87.3193 102.802C87.3193 102.362 87.2227 101.996 87.0293 101.703C86.8359 101.404 86.5137 101.135 86.0625 100.895C85.6172 100.648 85.0078 100.388 84.2344 100.112C83.6895 99.9189 83.209 99.708 82.793 99.4795C82.377 99.2451 82.0283 98.9814 81.7471 98.6885C81.4658 98.3955 81.252 98.0557 81.1055 97.6689C80.9648 97.2822 80.8945 96.8398 80.8945 96.3418C80.8945 95.6562 81.0674 95.0703 81.4131 94.584C81.7646 94.0918 82.248 93.7168 82.8633 93.459C83.4844 93.1953 84.1963 93.0635 84.999 93.0635C85.6846 93.0635 86.3174 93.1279 86.8975 93.2568C87.4834 93.3857 88.0195 93.5586 88.5059 93.7754L88.04 95.0586C87.5771 94.8652 87.085 94.7041 86.5635 94.5752C86.0479 94.4463 85.5146 94.3818 84.9639 94.3818C84.4131 94.3818 83.9473 94.4639 83.5664 94.6279C83.1914 94.7861 82.9043 95.0117 82.7051 95.3047C82.5059 95.5977 82.4062 95.9463 82.4062 96.3506C82.4062 96.8018 82.5 97.1768 82.6875 97.4756C82.8809 97.7744 83.1855 98.041 83.6016 98.2754C84.0234 98.5039 84.5801 98.7441 85.2715 98.9961C86.0273 99.2715 86.6689 99.5645 87.1963 99.875C87.7236 100.18 88.125 100.555 88.4004 101C88.6758 101.439 88.8135 101.999 88.8135 102.679ZM95.3877 106.098H93.8848V94.5664H89.8418V93.248H99.4131V94.5664H95.3877V106.098ZM101.355 106.098V93.248H102.85V106.098H101.355Z" fill="#F5F5F5" fill-opacity="0.8"/>
</svg>
