<svg xmlns="http://www.w3.org/2000/svg" viewBox="0 0 345.6 345.6" height="345.6" width="345.6" xml:space="preserve">
  <defs>
    <clipPath id="a" clipPathUnits="userSpaceOnUse">
      <path d="M0 259.2h259.2V0H0Z"/>
    </clipPath>
  </defs>
  <g clip-path="url(#a)" transform="matrix(1.33333 0 0 -1.33333 0 345.6)">
    <path style="fill:#01cdfd;fill-opacity:1;fill-rule:nonzero;stroke:none" d="M0 0c0 .532.043.896-.01 1.246-.084.561.065 1.279-.768 1.441-.699.136-1.17-.007-1.656-.692-.977-1.38-1.585-2.978-2.651-4.291-.241-.296-.183-.526-.048-.855.433-1.058.801-1.867 2.323-1.436 1.403.397 2.468.819 2.54 1.836C-.201-1.773.221-.827 0 0m1.341 24.626C1.388 23.538.5 22.775.358 21.73c-.154-1.131.187-1.533 1.284-1.289.219.049.542.074.682-.046.893-.771 1.833-.388 2.645-.001 1.021.487 2.214.633 3.064 1.478.342.34.605.074.764-.2.666-1.149 1.876-1.747 2.748-2.7.638-.697-.093-1.134.093-1.712.111-.346-.568-.107-.879-.119-1.782-.074-3.514-.199-4.691-1.848-.49-.686-.547-1.486-.731-2.243-.151-.62-.471-.885-1.041-.943q-2.82-.284-5.641-.553c-1.403-.133-2.739-.701-4.182-.61-.267.017-.539.014-.814.037-.824.07-1.764.424-2.112-.821-.436-1.556-.241-2.036 1.094-2.625.426-.187.964-.382 1.18-.737.613-1.006 1.619-1.125 2.482-.93 2.63.595 5.292.555 7.945.764 1.132.089 1.626-.145 2.039-1.117.284-.669.688-1.559 1.642-1.169.859.351 1.648.847 1.726 2.063.061.94 1.161.766 1.722.753 1.706-.038 3.397-.302 5.126-.28 1.06.014 1.51.452 1.899 1.224.117.231.042.607.452.582.615-.037.059-.376.132-.555.027-.066.069-.179.106-.179 1.545-.033 2.319-2.28 4.163-1.456.061.027.203.005.227-.039.686-1.236 2.014-.968 3.071-1.361 2.24-.832 4.571-1.13 6.915-1.326.851-.071 1.636-.32 2.44-.515 1.374-.334 2.731-.697 4.169-.572a.84.84 0 0 0 .879-.506c.307-.664.748-.938 1.644-.173-.364-1.468-.913-2.643.273-3.602.221-.179-.024-.535-.111-.789-.152-.444-.03-.888.292-1.084 1.374-.839 1.334-2.462 2-3.672.494-.898-.388-2.039-1.146-2.751-2.411-2.26-4.727-4.615-7.556-6.416-2.418-1.54-5.1-1.874-7.787-2.425-1.485-.305-2.914-.28-4.392-.22-1.244.051-2.333.517-3.155 1.303-.672.643-.628 1.728-.127 2.541.911 1.478 2.193 2.588 3.753 3.391 1.222.63 2.475.569 3.569-.052 1.28-.726 2.264-.22 3.224.435 1.161.793 2.212 1.746 3.346 2.58.713.524.549 1.205.489 1.892-.142 1.639-1.031 2.353-2.658 2.603-2.002.308-4.047.522-5.929 1.391-.346.16-.734.39-.73.709.016 1.085-.611 1.31-1.514 1.516-.784.178-1.511.625-1.428 1.7.031.407-.14.842-.272 1.247-.441 1.343-1.999 1.782-3.56.915-.685-.38-1.427-.56-2.112-.509-1.19.089-2.198-.574-3.361-.576-.484-.001-.944-.521-.993-1.166-.117-1.576-1.015-2.784-2.2-3.613-1.483-1.038-1.78-2.694-2.558-4.086-.721-1.292-.675-2.937-1.928-4.034-.493-.432-.667-1.147-.806-1.883-.314-1.656-1.355-2.977-2.658-4.013-.432-.344-.921-.653-1.237-1.084-1.551-2.116-3.845-2.434-6.067-2.045-1.398.245-3.212.01-4.153 1.861-.506.994-.626 1.656-.009 2.546 1.027 1.48 2.137 1.868 3.711 1.352.609-.2 1.153.314 1.582.687.59.515 1.04 1.179 1.066 1.991-3.286.287-6.251 1.592-9.155 3.064-2.414 1.223-3.768 4.351-3.125 7.022.423 1.756 1.316 3.288 2.17 4.846.446.813.756 1.69 1.254 2.485.309.494.005.92-.499 1.227-1.162.71-2.359 1.383-3.428 2.218-1.151.899-1.993 2.098-2.733 3.372-.481.827-.926.77-1.444-.059-.471-.754-2.046-1.34-2.823-.87-1.065.645-1.496.111-1.595-.777-.124-1.104-.672-1.422-1.664-1.313a3 3 0 0 1-.719 0c-1.619-.225-3.056.139-4.188 1.358-.747.804-1.386.415-1.799-.229-.901-1.404-1.614-2.928-2.517-4.33-.867-1.344-1.908-2.557-3.441-3.224-.413-.18-.874.082-.952.255-.332.742-2.199.373-1.415 1.934.039.077-.553.471-.852.716-.413.338-.399.845-.215 1.198.237.458.642.055.906-.091.59-.326.76-.168.972.457.418 1.237.569 2.567 1.314 3.7.262.4.147.913-.132 1.352-.318.501-.349 1.039-.093 1.629-1.823.325-3.647.047-5.45-.022-.406-.016-1.744-.391-1.192-1.639.149-.337.266-.788-.085-1.046-.446-.327-.68.164-.993.378-.413.281-.868.501-1.33.761.03-1.143-.366-1.514-1.429-1.2-.756.224-1.5.371-2.28.486-1.378.203-2.121 1.414-2.68 2.47-.461.869.1 1.708 1.08 2.321 2.053 1.287 4.219 2.429 5.999 4.121.834.793 1.485 1.685 1.859 2.802.605 1.81 1.597 3.43 2.739 4.945 1.288 1.71.961 3.602.684 5.478-.233 1.568-.4 3.158-1.316 4.552-.507.772.371 1.106.752 1.469.257.246.753.238 1.193-.245.793-.87 1.371-1.935 2.451-2.711.107 1.11.428 2.138.324 3.226-.046.487.007 1.071.459 1.231.482.171 1.04.148 1.525-.341 1.434-1.449 2.957-2.809 4.397-4.252.447-.448.761-.807 1.462-.439.436.229 1.021.02 1.237-.391.673-1.288 1.856-1.171 2.882-.948 1.474.319 3.018.479 4.389 1.172 1.338.675 2.86.56 4.243 1.126 1.049.43 2.154.807 3.27 1.122 1.264.356 2.515.661 3.799.585 2.038-.121 3.994.45 6.009.534 3.144.131 6.073 1.406 9.153 1.968 2.314.423 4.661.479 6.939.93 3.387.671 6.773.338 10.157.416 3.112.072 6.112-.593 8.961-1.824 1.083-.468 2.234-.627 3.328-1.018a10 10 0 0 0 3.29-1.957c2.03-1.789 4.136-3.49 6.181-5.263.491-.426 1.116-.637 1.647-.82 1.55-.533 2.631-1.618 3.592-2.788a20 20 0 0 1 2.073-2.168c1.692-1.523 2.74-3.347 3.384-5.48.36-1.194.995-2.262 1.969-3.054 1.446-1.177 1.853-2.796 2.187-4.508.104-.534.522-1.067.926-1.471 1.017-1.018 2.112-1.957 3.168-2.936 2.286-2.118 4.982-3.686 7.468-5.534 1.59-1.182 3.496-1.892 5.046-3.163 2.457-2.015 5.286-3.475 7.947-5.177 2.296-1.468 4.838-2.464 7.589-3.102 1.829-.424 3.829-.761 5.518-1.806.132-.082.274-.207.413-.208.773-.006 1.517.115 1.464-1.117-.069-1.596-.325-2.17-1.698-2.486-.657-.151-1.009-.409-1.229-1.064-.261-.777-1.16-.943-1.72-.814-1.048.242-2.105.121-3.151.322-.956.183-1.67.647-2.536 1.522.148-1.27-.383-2-.799-2.761-.731-1.339-2.124-1.569-3.421-.313-.634.614-1.066 1.147-2.196.593-.624-.306-1.759.289-2.609.62-1.188.463-2.082 1.399-3.209 2.246 2.643.917 5.218 1.568 7.936 1.557.841-.003 1.252 1.206 1.092 2.203-.244 1.514-1.238 1.757-2.472 2.186-3.82 1.329-7.865 2.047-11.403 4.182-1.157.698-1.976 1.687-2.76 2.674-2.061 2.598-3.843 5.408-6.165 7.813-.561.581-1.351.587-1.857 1.204-.893 1.086-1.877 2.1-2.855 3.114-1.761 1.824-4.158 2.648-6.254 3.947-1.699 1.052-3.451 2.009-5.106 3.146-1.272.874-2.69 1.608-4.276 1.923-2.185.435-4.174 1.393-6.019 2.618-.903.6-1.931.716-2.921.983-.962.259-1.662.755-2.236 1.597-.701 1.028-1.518 1.872-2.997 1.948-.995.051-2.055.227-2.767 1.426-.59.995-1.793 1.58-3.061 1.925-1.935.526-3.82 1.255-5.689 1.992-.564.222-.847.84-.979 1.483-.32 1.558-.694 3.104-1.016 4.662-.16.77-.921 1.308-1.53.881-.485-.339-.599-.264-.812.179-.124.256-.366.465-.678.386-.341-.086-.276-.452-.345-.696-.284-1-.645-1.997-.765-3.019-.251-2.132-1.563-3.344-3.381-4.094-.628-.259-1.216-.731-1.351-1.157-.64-2.025-2.546-2.224-4.036-2.957-.909-.447-1.696-1.228-2.808-1.251-.241-.005-.24-.276-.309-.457-.289-.749.169-2.48.812-3.051 1.15-1.02 2.124-1.206 3.283-.627z" transform="translate(141.596 125.492)"/>
    <path style="fill:#fc0030;fill-opacity:1;fill-rule:nonzero;stroke:none" d="M0 0c-1.74 1.803-3.256 3.519-5.199 4.76-.687.439-1.131 1.111-1.771 1.575-.149.108-.372.115-.561.168.012-.11.017-.22.035-.329.218-1.307.625-2.527 1.822-3.271 1.127-.699 2.299-1.327 3.433-2.014C-1.615.509-1.107-.114 0 0m-36.031 17.242c1.77 2.628 3.406 5.384 5.378 7.875 1.465 1.852 2.502 4.03 4.539 5.498 1.778 1.281 4.959.286 6.061-1.045 1.455-1.758 2.9-3.515 3.906-5.584.201-.413.502-.425.867-.168.351.247.766.412 1.089.688 2.197 1.879 4.024.828 5.511-.675 1.683-1.701 3.114-3.625 4.404-5.661.741-1.17 1.771-2.152 2.629-3.252 1.919-2.46 4.113-4.666 6.288-6.889.348-.356.435-.83.783-1.17 1.814-1.778 1.689-1.681 4.919-.523 2.018.724 4.112 1.252 5.928 2.546.503.358 1.703.526 2.379-.289 1.184-1.424 1.224-1.99.55-3.12-.814-1.366-1.374-2.11-2.343-3.415-.195-.263-.425-.469-.677-.813-1.239-1.687-2.756-3.175-4-4.825-1.078-1.43-2.418-1.879-3.823-1.905-6.474-.121-12.952-.065-19.428-.047-1.973.005-2.819 1.46-2.66 3.425.148 1.839-.223 3.748-1.222 5.409-.725 1.206-1.521 2.371-2.27 3.563-.325.519-.644.648-1.119.154-1.764-1.836-3.486-3.701-5.086-5.69-1.691-2.103-3.466-4.201-5.733-5.688-1.345-.883-2.784-1.686-4.653-1.547a61 61 0 0 1-8.867.005c-2.094-.15-3.482.81-4.526 2.272-.716 1.003-1.622 1.81-2.353 2.793-1.601 2.151-3.263 4.257-4.666 6.547-2.187 3.571-4.054 7.317-5.828 11.101-.536 1.146-.856 1.049-1.652.378-1.053-.887-2.22-1.625-3.251-2.556-.652-.59-.768-1.166-.581-1.937a43 43 0 0 1 2.589-7.607c.662-1.463.991-3.03 1.582-4.511.057-.142.014-.339.096-.455.559-.785 3.519-1.269 4.362-.729 1.168.748 1.577.538 2.899-.327 1.189-.777 1.746-2.027 2.73-2.935.473-.437.382-1.144.055-1.656-.367-.575-.866-.263-1.367-.052-.957.403-2.117.108-2.993.857-.207.177-.417-.066-.458-.215-.292-1.069-1.127-.927-1.924-.918-1.199.013-2.405.077-3.596-.022-.858-.071-1.462.304-1.781.933-.59 1.162-1.462 2.122-2.074 3.275-1.265 2.385-2.657 4.708-4.1 6.991-1.448 2.291-2.735 4.645-3.409 7.281-.167.655-.628 1.148-.714 1.855-.179 1.467.62 2.543 1.445 3.475 2.504 2.829 4.952 5.69 7.145 8.776 1.295 1.823 3.159 2.826 5.44 2.916.414.016.841.007 1.051.413.251.487-.225.699-.479.975-1.333 1.455-2.55 3.044-2.898 4.994-.338 1.9.474 3.669 1.635 5.136 2.407 3.044 5.539 3.123 8.933 2.331 1.344-.72 1.344-.72 2.228-1.858 1.07-1.96 2.501-3.489 3.368-5.785.352-.926.783-2.121.686-3.296-.122-.542-.401-1.014-.787-1.44-.664-.734-.162-.97.436-1.127.337-.089.716-.022 1.075-.023 2.441-.002 3.473-1.158 4.746-3.284 1.072-1.792.309-3.954 1.712-5.533.978-1.1 1.155-2.614 1.874-3.89" transform="translate(93.799 111.45)"/>
    <path style="fill:#01cdfd;fill-opacity:1;fill-rule:nonzero;stroke:none" d="M0 0c2.736-.823 4.412-2.782 5.914-4.948.515-.743.76-1.255-.253-1.982-1.104-.793-2.315-1.446-3.337-2.356-.245-.218-.564-.235-.89-.232-1.599.011-3.199-.012-4.799.011-1.149.016-1.619.522-1.694 1.655-.136 2.069.691 2.82 2.476 3.855.595.345 1.22.646 1.783 1.037C.269-2.219-.079-1.043 0 0" transform="translate(204.717 115.835)"/>
  </g>
</svg>
