<svg width="99" height="56" viewBox="0 0 99 56" fill="none" xmlns="http://www.w3.org/2000/svg">
<path d="M12.9447 20.882C12.6979 21.3617 12.5069 21.739 12.3113 22.1115C11.9574 22.7868 11.4311 23.3038 10.8256 23.7509C10.5136 23.9838 10.2109 24.035 9.83365 23.9279C8.12443 23.4342 6.61547 22.5773 5.27417 21.4129C4.62216 20.8494 3.89096 20.3977 3.15977 19.9645C2.6987 19.6898 2.13517 19.5547 1.56698 19.5314C0.402664 19.4895 -0.221411 18.6512 0.071997 17.5195C0.104598 17.3937 0.151171 17.2726 0.193086 17.1469C0.663471 15.6892 1.2922 15.4796 2.51707 16.3738C2.94088 16.6812 3.36935 17.0025 3.6581 17.431C4.31478 18.395 5.27417 18.884 6.33138 19.2427C7.24886 19.5547 8.171 19.8434 9.07451 20.1881C9.43778 20.3278 9.53092 20.202 9.5775 19.89C9.86625 17.9805 10.304 16.0943 10.5322 14.1755C10.6673 13.0718 10.8955 11.982 11.5149 11.0179C11.9248 10.3799 12.4883 10.0166 13.2521 9.94674C13.7364 9.90483 14.2068 9.80702 14.6213 9.51361C15.2175 9.09446 15.3944 8.46573 15.0684 7.80905C14.8588 7.39455 14.626 6.98937 14.4257 6.57022C13.634 4.91223 13.7504 3.27287 14.6819 1.72666C15.427 0.49248 16.6798 0.208386 17.9932 0.343447C19.3252 0.478508 20.3498 1.18176 20.6199 2.56031C21.0437 4.72128 21.3977 6.9102 19.9353 8.88488C19.763 9.11775 19.7304 9.27143 20.1029 9.30869C22.2779 9.52293 24.1268 10.4544 25.7382 11.8981C26.5207 12.5967 27.3823 13.1835 28.2718 13.7238C29.7621 14.6273 30.4188 15.9593 30.4235 17.6359C30.4328 21.0031 30.4002 24.375 30.3909 27.7422C30.3909 28.2452 30.2372 28.7016 29.9112 29.0788C29.3895 29.6889 27.6244 29.5585 27.182 28.8832C26.9631 28.5479 26.9305 28.1753 27.0609 27.812C27.196 27.4255 27.3171 27.0156 27.5499 26.6896C27.9504 26.1214 27.9924 25.516 27.9085 24.8779C27.6803 23.0896 27.5825 21.2825 27.2519 19.5035C27.0935 18.6465 26.9864 17.771 26.3111 17.105C26.0689 16.8628 25.836 16.6486 25.5007 16.5368C24.8301 16.3179 24.1641 16.0804 23.4934 15.8428C23.2326 15.7497 23.0324 15.7497 22.9439 16.085C22.576 17.4869 22.1056 18.8654 22.4176 20.3557C22.6132 21.2872 22.9439 22.1767 23.2652 23.0663C23.8148 24.5752 24.1129 26.1401 23.6471 27.6677C23.0976 29.4886 23.3118 31.2258 23.7216 32.9909C24.057 34.444 24.2339 35.9203 24.6205 37.3641C24.8953 38.3934 25.3563 39.3062 25.9851 40.1491C26.2273 40.4751 26.53 40.694 26.9398 40.7779C29.1893 41.225 31.1034 42.3287 32.6403 43.9821C34.3728 45.845 36.259 47.5076 38.2523 49.0725C39.398 49.9713 39.5331 51.2614 38.6482 52.4117C38.1313 53.0824 37.7214 53.8043 37.3628 54.5681C37.0182 55.3039 36.4733 55.6625 35.6303 55.602C34.9457 55.5507 34.2564 55.5927 33.5671 55.5787C33.1061 55.5694 32.7242 55.3738 32.5472 54.9267C32.3655 54.4609 32.617 54.1023 32.9291 53.781C33.2132 53.4876 33.5858 53.3385 33.9676 53.278C34.3682 53.2174 34.6057 53.0079 34.764 52.6679C34.9969 52.1602 35.1972 51.6526 35.3089 51.0937C35.4813 50.2647 35.1273 49.7245 34.4893 49.31C34.1027 49.0585 33.6929 48.7977 33.2597 48.6626C30.5026 47.7871 27.8899 46.5669 25.3051 45.2908C24.7556 45.0206 24.1734 44.8157 23.6145 44.5642C22.2732 43.9634 21.2905 43.018 20.6758 41.6534C19.6 39.2829 18.2913 37.0241 17.3225 34.5977C16.9546 33.6709 16.4889 33.5125 15.5621 33.8479C14.0904 34.3741 12.6373 34.9423 11.2122 35.5804C9.95474 36.1439 9.63804 36.6562 9.84296 38.0441C9.99199 39.0547 10.1317 40.07 10.2481 41.0852C10.4344 42.6734 10.2202 44.2475 10.0665 45.8217C9.83365 48.2481 9.47038 50.6559 9.53558 53.1057C9.5775 54.5215 8.95342 55.1036 7.5609 55.1502C5.81442 55.2061 4.06794 55.3132 2.32146 55.397C2.11654 55.4064 1.91162 55.4343 1.7067 55.4157C1.3248 55.3738 0.970852 55.248 0.821819 54.8428C0.677444 54.4516 0.882363 54.1675 1.11523 53.8834C1.6741 53.2081 2.46584 52.9194 3.23429 52.584C4.24026 52.1416 5.19034 51.5921 6.0892 50.9587C6.52698 50.6513 6.66204 50.2135 6.60615 49.6965C6.25686 46.2874 5.94948 42.8783 5.54895 39.4738C5.41389 38.3281 5.23226 37.2057 5.39992 36.0414C5.59087 34.7048 6.19631 33.587 7.016 32.5438C8.58084 30.5505 10.5974 29.0881 12.6699 27.6956C13.1962 27.3416 13.457 26.9085 13.5176 26.2844C13.6526 24.9385 13.2009 23.6671 13.0937 22.3537C13.0751 21.888 13.131 21.4176 12.9447 20.882Z" fill="#FE0332"/>
<path d="M41.4243 38.7148C41.3777 38.7008 41.3264 38.6589 41.2892 38.6682C40.232 38.9197 39.8128 38.2537 39.4961 37.4294C39.4635 37.3409 39.4263 37.2571 39.3937 37.1686C39.1096 36.4653 39.1794 36.3768 39.8687 36.1207C41.0191 35.6969 42.1694 35.2544 43.2546 34.6723C43.4362 34.5745 43.6411 34.472 43.7017 34.2717C43.8786 33.6616 44.3583 33.3356 44.8474 33.0329C45.2618 32.7768 45.369 32.4694 45.206 31.999C44.9312 31.2073 44.6378 30.4295 44.1534 29.7356C44.1208 29.689 44.1068 29.6331 44.0836 29.5865C43.9904 29.4002 43.8554 29.1767 44.009 29.0137C44.1674 28.8507 44.3816 29.0183 44.5493 29.1068C45.4062 29.5446 46.3051 29.8939 47.162 30.4574C47.3157 29.7449 47.19 29.0929 47.1387 28.4408C47.1294 28.2872 47.0176 28.0776 47.2086 27.9844C47.3949 27.8913 47.5067 28.0869 47.6277 28.1893C48.5313 28.9485 49.2764 29.8567 49.9471 30.8207C50.1101 31.0582 50.3103 31.1979 50.5944 31.3004C51.4979 31.6218 52.2804 32.162 53.0209 32.7628C53.8219 33.4101 54.7068 33.9457 55.6709 34.2717C56.5045 34.5512 57.4127 34.4254 58.2743 34.3416C59.6621 34.2112 60.9848 34.4394 62.2702 34.9144C62.871 35.138 63.4625 35.1799 64.0772 35.1333C67.0113 34.9238 69.9547 34.8819 72.8935 34.8912C74.9892 34.9005 76.8522 35.6643 78.5847 36.7867C79.6372 37.4666 80.7643 37.9976 81.8634 38.5844C82.4735 38.9057 83.0976 39.1852 83.6518 39.5997C84.3783 40.1446 85.3051 40.2517 86.1108 40.6382C87.9458 41.5185 89.8879 41.3741 91.816 41.2018C93.7022 41.0341 95.5791 40.7221 97.4606 40.4845C97.6841 40.4566 97.9962 40.3448 98.0754 40.6708C98.1452 40.9596 97.8378 41.0108 97.6515 41.104C97.3861 41.2344 97.1998 41.3555 97.4233 41.6861C97.5724 41.9097 97.3768 41.9982 97.2091 42.1053C96.6176 42.4825 95.9377 42.6176 95.2763 42.7806C94.8805 42.8784 94.5125 42.9808 94.4846 43.4838C94.466 43.7772 94.2145 43.8238 94.0142 43.8844C93.269 44.1079 92.4959 44.215 91.7275 44.3268C91.5831 44.3501 91.3549 44.3175 91.299 44.4013C90.9171 44.9788 90.4887 44.6575 90.0509 44.5131C89.2079 44.2336 88.3603 43.9728 87.5127 43.7074C86.9771 43.5397 86.4834 43.6189 86.0596 43.9915C85.8966 44.1358 85.7615 44.1638 85.5566 44.0706C84.9837 43.8098 84.3783 43.6049 83.8613 43.2277C83.5074 42.9669 83.1302 42.8272 82.6831 42.8272C82.2872 42.8272 82.1335 42.9995 82.1614 43.3674C82.1987 43.8145 82.2686 44.2104 82.7063 44.5131C83.6564 45.1651 84.5227 45.9382 85.4867 46.5669C86.7535 47.3959 87.4242 48.5882 87.8433 49.9761C88.1274 50.9261 88.472 51.839 88.9564 52.7099C89.3662 53.4411 89.6364 54.2049 89.2079 55.0432C89.0402 55.3692 88.8027 55.5555 88.4441 55.6207C87.9411 55.7092 87.4381 55.6998 86.9398 55.6486C86.4182 55.5927 86.1294 55.1643 86.3949 54.8057C86.9212 54.0931 86.7442 53.3992 86.4741 52.6913C86.1015 51.7179 85.701 50.7585 85.3191 49.7944C85.2399 49.5988 85.17 49.4312 84.9046 49.4218C83.5121 49.3613 82.2732 48.8211 81.0716 48.1597C80.8574 48.0433 80.578 47.7359 80.401 47.9222C80.1774 48.1644 80.4569 48.4671 80.6106 48.7139C81.067 49.4591 81.542 50.195 81.9798 50.9448C82.5107 51.8529 82.3291 52.2861 81.4442 52.8543C80.047 53.7531 78.5148 54.3958 77.113 55.2807C76.8568 55.4437 76.5774 55.5368 76.27 55.5368C75.6925 55.5322 75.115 55.5415 74.5375 55.5322C74.0578 55.5229 73.6759 55.3319 73.634 54.8103C73.5967 54.3353 73.8994 54.0558 74.3372 53.9301C74.5515 53.8695 74.7704 53.823 74.9892 53.7904C75.6599 53.6926 76.2793 53.4737 76.8661 53.1151C77.5461 52.6959 78.2493 52.314 78.9619 51.9461C79.3019 51.7691 79.3298 51.5782 79.1435 51.2894C78.58 50.4138 78.1329 49.4684 77.4529 48.6627C77.2201 48.3833 76.9872 48.2529 76.61 48.2436C75.0824 48.2203 73.5734 48.1597 72.111 47.5822C70.7791 47.056 69.8243 46.1478 69.0838 44.9788C68.7857 44.5084 68.4597 44.052 68.1477 43.5909C67.8636 43.1718 67.4817 43.0181 67.0067 43.0321C65.2881 43.0693 63.6767 43.6142 62.0653 44.1172C61.6461 44.2476 61.3388 44.6016 61.0733 44.909C59.881 46.2689 58.265 46.9768 56.7374 47.8104C55.0887 48.7093 53.3469 49.4218 51.6051 50.1251C50.5898 50.5396 49.6071 51.0333 48.6244 51.5223C47.1946 52.2348 45.7555 51.9275 44.3397 51.5316C43.86 51.3965 43.7901 50.9261 43.9438 50.4558C44.1348 49.8783 44.4794 49.5569 44.9358 49.692C45.5133 49.8643 45.6344 49.5755 45.6577 49.1238C45.681 48.6767 45.695 48.2296 45.6857 47.7825C45.6577 46.1245 46.3889 44.9928 47.9491 44.3734C48.7781 44.0427 49.5745 43.6329 50.3849 43.2649C50.6457 43.1485 50.8226 43.0554 50.4966 42.7759C49.8958 42.2543 49.4627 41.5837 49.132 40.8851C48.7734 40.1399 48.2099 39.7813 47.4601 39.5531C46.2212 39.1759 44.9778 39.3947 43.7436 39.4879C42.9658 39.5484 42.188 39.6136 41.4103 39.6462C41.1867 39.6555 40.9259 39.6602 40.8421 39.3994C40.7443 39.0827 41.0144 38.9942 41.2333 38.8871C41.3078 38.8592 41.4149 38.8498 41.4243 38.7148ZM53.7195 45.7752C53.0302 45.8218 52.476 45.8404 51.9264 45.9056C50.7714 46.0407 49.5931 46.064 48.5313 46.6834C47.9398 47.028 47.6371 47.4239 47.6557 48.1458C47.6883 49.2961 47.8233 49.366 48.8666 48.7559C50.0542 48.0619 51.2045 47.3121 52.4434 46.6973C52.8672 46.4878 53.2863 46.2363 53.7195 45.7752Z" fill="#3A84E3"/>
</svg>
