<?xml version="1.0" encoding="UTF-8" standalone="no"?>
<!-- Created with Inkscape (http://www.inkscape.org/) -->

<svg
   xmlns:dc="http://purl.org/dc/elements/1.1/"
   xmlns:cc="http://creativecommons.org/ns#"
   xmlns:rdf="http://www.w3.org/1999/02/22-rdf-syntax-ns#"
   xmlns:svg="http://www.w3.org/2000/svg"
   xmlns="http://www.w3.org/2000/svg"
   xmlns:sodipodi="http://sodipodi.sourceforge.net/DTD/sodipodi-0.dtd"
   xmlns:inkscape="http://www.inkscape.org/namespaces/inkscape"
   version="1.1"
   id="svg854"
   xml:space="preserve"
   width="358.93134"
   height="117.84267"
   viewBox="0 0 358.93133 117.84267"
   sodipodi:docname="ncsc_logo_white.svg"
   inkscape:version="0.92.5 (2060ec1f9f, 2020-04-08)"><metadata
     id="metadata72"><rdf:RDF><cc:Work
         rdf:about=""><dc:format>image/svg+xml</dc:format><dc:type
           rdf:resource="http://purl.org/dc/dcmitype/StillImage" /><dc:title></dc:title></cc:Work></rdf:RDF></metadata><sodipodi:namedview
     pagecolor="#ffffff"
     bordercolor="#666666"
     borderopacity="1"
     objecttolerance="10"
     gridtolerance="10"
     guidetolerance="10"
     inkscape:pageopacity="0"
     inkscape:pageshadow="2"
     inkscape:window-width="1920"
     inkscape:window-height="1031"
     id="namedview70"
     showgrid="false"
     inkscape:zoom="3.3726975"
     inkscape:cx="198.68348"
     inkscape:cy="42.964117"
     inkscape:window-x="0"
     inkscape:window-y="25"
     inkscape:window-maximized="1"
     inkscape:current-layer="svg854"
     inkscape:pagecheckerboard="true" /><defs
     id="defs858"><clipPath
       clipPathUnits="userSpaceOnUse"
       id="clipPath868"><path
         d="M 0,425.197 H 425.197 V 0 H 0 Z"
         id="path866" /></clipPath></defs><g
     id="g860"
     transform="matrix(1.3333333,0,0,-1.3333333,-103.99973,342.38666)"
     style="fill:#ffffff"><g
       id="g862"
       style="fill:#ffffff"><g
         id="g864"
         clip-path="url(#clipPath868)"
         style="fill:#ffffff"><g
           id="g870"
           transform="translate(21.3091,408.872)"
           style="fill:#ffffff" /><g
           id="g874"
           transform="translate(22.9693,405.0215)"
           style="fill:#ffffff" /><g
           id="g878"
           transform="translate(30.0376,401.9638)"
           style="fill:#ffffff" /><g
           id="g882"
           transform="translate(36.4576,405.0215)"
           style="fill:#ffffff" /><g
           id="g886"
           transform="translate(43.3091,404.1582)"
           style="fill:#ffffff" /><g
           id="g890"
           transform="translate(54.4058,408.872)"
           style="fill:#ffffff" /><g
           id="g894"
           transform="translate(58.8833,405.0459)"
           style="fill:#ffffff" /><g
           id="g898"
           transform="translate(65.6773,398.9531)"
           style="fill:#ffffff" /><g
           id="g902"
           transform="translate(80.3257,401.6396)"
           style="fill:#ffffff" /><g
           id="g906"
           transform="translate(87.273,405.0341)"
           style="fill:#ffffff" /><g
           id="g910"
           transform="translate(96.021,405.1533)"
           style="fill:#ffffff" /><g
           id="g914"
           transform="translate(103.9888,405.0341)"
           style="fill:#ffffff" /><g
           id="g918"
           transform="translate(111.3462,407.9843)"
           style="fill:#ffffff" /><g
           id="g922"
           transform="translate(112.6802,401.1718)"
           style="fill:#ffffff" /><g
           id="g926"
           transform="translate(120.106,406.6045)"
           style="fill:#ffffff" /><g
           id="g930"
           transform="translate(124.3804,398.9531)"
           style="fill:#ffffff" /><g
           id="g934"
           transform="translate(138.7779,406.6045)"
           style="fill:#ffffff" /><g
           id="g938"
           transform="translate(147.4165,405.0341)"
           style="fill:#ffffff" /><g
           id="g942"
           transform="translate(155.229,401.6152)"
           style="fill:#ffffff" /><g
           id="g946"
           transform="translate(156.7193,401.1718)"
           style="fill:#ffffff" /><g
           id="g950"
           transform="translate(164.9009,407.9843)"
           style="fill:#ffffff" /><g
           id="g954"
           transform="translate(166.2349,401.1718)"
           style="fill:#ffffff" /><g
           id="g958"
           transform="translate(175.3521,408.8476)"
           style="fill:#ffffff" /><g
           id="g962"
           transform="translate(115.2218,255.7517)"
           style="fill:#ffffff;fill-opacity:1"><path
             d="m 0,0 v -39.479 h -9.306 l -17.201,21.601 V -39.479 H -37.222 V 0 h 9.305 l 17.202,-21.6 V 0 Z"
             style="fill:#ffffff;fill-opacity:1;fill-rule:nonzero;stroke:none"
             id="path964" /></g><g
           id="g966"
           transform="translate(121.7117,236.0121)"
           style="fill:#ffffff;fill-opacity:1"><path
             d="m 0,0 c 0,11.28 7.839,20.585 20.641,20.585 8.346,0 14.946,-4.116 17.765,-10.321 L 29.553,5.189 c -1.467,3.327 -4.626,5.414 -8.799,5.414 -6.429,0 -9.87,-4.625 -9.87,-10.603 0,-5.922 3.61,-10.546 10.039,-10.546 4.173,0 7.445,2.086 8.912,5.358 l 8.853,-5.076 C 35.868,-16.468 29.213,-20.585 20.811,-20.585 8.008,-20.585 0,-11.279 0,0"
             style="fill:#ffffff;fill-opacity:1;fill-rule:nonzero;stroke:none"
             id="path968" /></g><g
           id="g970"
           transform="translate(162.8851,220.7849)"
           style="fill:#ffffff;fill-opacity:1"><path
             d="m 0,0 4.568,8.911 c 4.061,-3.44 8.798,-4.85 14.607,-4.85 4.511,0 7.106,1.015 7.106,3.327 0,1.636 -1.467,2.087 -8.968,3.158 -8.46,1.298 -16.411,2.594 -16.411,11.675 0,8.516 7.163,13.592 17.37,13.592 9.193,0 15.002,-4.005 17.315,-9.137 l -8.573,-4.342 c -1.128,3.045 -4.569,4.23 -8.911,4.23 -4.963,0 -6.486,-1.523 -6.486,-3.384 0,-1.692 1.523,-2.257 8.573,-3.271 8.573,-1.241 16.806,-2.764 16.806,-11.957 0,-8.854 -7.727,-13.31 -18.555,-13.31 C 11.222,-5.358 5.244,-3.609 0,0"
             style="fill:#ffffff;fill-opacity:1;fill-rule:nonzero;stroke:none"
             id="path972" /></g><g
           id="g974"
           transform="translate(203.9455,236.0121)"
           style="fill:#ffffff;fill-opacity:1"><path
             d="m 0,0 c 0,11.28 7.839,20.585 20.641,20.585 8.346,0 14.946,-4.116 17.765,-10.321 L 29.553,5.189 c -1.467,3.327 -4.626,5.414 -8.799,5.414 -6.429,0 -9.87,-4.625 -9.87,-10.603 0,-5.922 3.61,-10.546 10.039,-10.546 4.173,0 7.445,2.086 8.912,5.358 l 8.853,-5.076 C 35.868,-16.468 29.213,-20.585 20.811,-20.585 8.008,-20.585 0,-11.279 0,0"
             style="fill:#ffffff;fill-opacity:1;fill-rule:nonzero;stroke:none"
             id="path976" /></g><path
           d="m 303.007,212.599 h -44.191 v 44.191 h 44.191 z"
           style="fill:#ffffff;fill-opacity:1;fill-rule:nonzero;stroke:none"
           id="path978" /><g
           id="g980"
           transform="translate(303.0073,168.408)"
           style="fill:#ffffff;fill-opacity:1"><path
             d="m 0,0 c 24.406,0 44.191,19.785 44.191,44.191 v 0 H 0 Z"
             style="fill:#ffffff;fill-opacity:1;fill-rule:nonzero;stroke:none"
             id="path982" /></g><g
           id="g984"
           transform="translate(197.4112,208.5582)"
           style="fill:#ffffff;fill-opacity:1"><path
             d="m 0,0 v -39.479 h -5.64 v 17.597 h -23.687 v -17.597 h -5.64 V 0 h 5.64 V -16.468 H -5.64 V 0 Z"
             style="fill:#ffffff;fill-opacity:1;fill-rule:nonzero;stroke:none"
             id="path986" /></g><g
           id="g988"
           transform="translate(214.3332,189.721)"
           style="fill:#ffffff;fill-opacity:1"><path
             d="m 0,0 h 15.002 c 4.174,0 7.558,2.538 7.558,6.712 0,4.173 -3.384,6.711 -7.558,6.711 H 0 Z m 30.455,-20.303 v -0.338 H 24.364 L 13.93,-5.301 H 0 v -15.34 H -5.64 V 0 18.837 h 20.868 c 7.162,0 12.971,-4.963 12.971,-12.125 0,-5.528 -3.497,-9.701 -8.403,-11.28 z"
             style="fill:#ffffff;fill-opacity:1;fill-rule:nonzero;stroke:none"
             id="path990" /></g></g></g></g></svg>