<svg width="58" height="58" viewBox="0 0 58 58" fill="none" xmlns="http://www.w3.org/2000/svg">
<path d="M50.75 18.1251V14.5001C50.75 13.2182 50.2408 11.9888 49.3343 11.0824C48.4279 10.176 47.1985 9.66675 45.9167 9.66675H12.0833C10.8015 9.66675 9.57208 10.176 8.66565 11.0824C7.75922 11.9888 7.25 13.2182 7.25 14.5001V48.3334C7.25 49.6153 7.75922 50.8447 8.66565 51.7511C9.57208 52.6575 10.8015 53.1667 12.0833 53.1667H20.5417" stroke="#9E0035" stroke-width="4" stroke-linecap="round" stroke-linejoin="round"/>
<path d="M38.6665 4.83325V14.4999" stroke="#9E0035" stroke-width="4" stroke-linecap="round" stroke-linejoin="round"/>
<path d="M19.3335 4.83325V14.4999" stroke="#9E0035" stroke-width="4" stroke-linecap="round" stroke-linejoin="round"/>
<path d="M7.25 24.1667H19.3333" stroke="#9E0035" stroke-width="4" stroke-linecap="round" stroke-linejoin="round"/>
<path d="M42.2915 42.2916L38.6665 39.3916V33.8333" stroke="#9E0035" stroke-width="4" stroke-linecap="round" stroke-linejoin="round"/>
<path d="M38.6665 53.1667C46.6746 53.1667 53.1665 46.6749 53.1665 38.6667C53.1665 30.6586 46.6746 24.1667 38.6665 24.1667C30.6584 24.1667 24.1665 30.6586 24.1665 38.6667C24.1665 46.6749 30.6584 53.1667 38.6665 53.1667Z" stroke="#9E0035" stroke-width="4" stroke-linecap="round" stroke-linejoin="round"/>
</svg>
