<svg width="62" height="62" viewBox="0 0 62 62" fill="none" xmlns="http://www.w3.org/2000/svg">
<path d="M51.6668 25.8334C51.6668 38.732 37.3577 52.1653 32.5527 56.3142C32.1051 56.6508 31.5602 56.8328 31.0002 56.8328C30.4401 56.8328 29.8952 56.6508 29.4476 56.3142C24.6426 52.1653 10.3335 38.732 10.3335 25.8334C10.3335 20.3523 12.5109 15.0956 16.3866 11.2199C20.2624 7.34412 25.519 5.16675 31.0002 5.16675C36.4813 5.16675 41.738 7.34412 45.6137 11.2199C49.4895 15.0956 51.6668 20.3523 51.6668 25.8334Z" stroke="#9E0035" stroke-width="4" stroke-linecap="round" stroke-linejoin="round"/>
<path d="M31 33.5833C35.2802 33.5833 38.75 30.1135 38.75 25.8333C38.75 21.553 35.2802 18.0833 31 18.0833C26.7198 18.0833 23.25 21.553 23.25 25.8333C23.25 30.1135 26.7198 33.5833 31 33.5833Z" stroke="#9E0035" stroke-width="4" stroke-linecap="round" stroke-linejoin="round"/>
</svg>
