<svg width="866" height="211" viewBox="0 0 866 211" fill="none" xmlns="http://www.w3.org/2000/svg">
<g clip-path="url(#clip0_92_4)">
<path d="M729.291 -0.692993C734.838 -0.519746 740.557 -0.519746 746.277 -0.173253C762.916 0.69298 779.382 2.77194 795.327 7.62285C805.554 10.7413 815.26 15.0725 823.233 22.3488C830.165 28.5857 834.672 36.0353 835.539 45.7371C806.247 45.7371 777.129 45.7371 748.01 45.7371C745.757 41.4059 741.597 39.8467 737.091 39.327C729.985 38.8072 722.705 38.8072 715.599 38.8072C712.825 38.8072 710.052 39.6735 707.452 40.3665C705.373 41.0594 703.639 42.2722 705.373 45.5639C707.452 46.0836 709.879 47.1231 712.479 47.4696C719.758 48.3358 727.211 49.202 734.664 49.5485C756.503 50.7613 778.342 51.8007 799.834 55.9587C809.193 57.6911 818.553 59.9433 826.872 64.9675C833.805 68.9522 838.485 74.6693 839.352 82.9851C839.352 83.3316 839.698 83.8514 839.698 84.7176C839.872 86.9698 840.045 87.1431 839.698 89.3953C839.525 90.7812 839.352 91.301 839.352 91.4742C837.272 102.042 830.339 108.626 821.326 112.784C813.526 116.422 805.38 119.367 797.234 121.446C777.302 126.124 757.023 127.336 736.744 127.336C735.184 127.336 733.798 127.51 732.064 127.336C730.678 127.51 729.465 127.51 728.078 127.51C726.345 127.51 724.958 127.336 723.398 127.336C702.946 127.163 682.494 125.777 662.562 120.753C653.202 118.327 644.363 115.209 636.217 110.012C625.99 103.428 619.231 94.5927 617.844 82.2922C617.844 81.7724 618.018 81.4259 618.018 80.7329C647.136 80.7329 676.254 80.7329 705.719 80.7329C707.972 85.4106 712.479 86.6233 717.159 87.3163C726.518 88.7023 735.878 88.529 745.237 87.3163C748.01 86.9698 751.13 86.6233 752.863 83.5049C752.343 81.0794 750.263 80.2132 748.183 79.8667C742.464 79.0005 736.744 78.1342 731.024 77.6145C716.465 76.575 702.079 76.0553 687.52 74.8426C672.614 73.6298 657.882 71.7241 643.669 66.7C640.203 65.4872 637.083 63.928 633.79 62.1955C616.458 53.1867 616.978 30.4914 629.457 19.7501C637.083 13.34 645.749 9.35531 655.109 6.75661C676.081 0.866227 697.573 -0.519746 719.238 -0.692993" fill="#FF0030"/>
<path fill-rule="evenodd" clip-rule="evenodd" d="M277.091 111.224C275.011 115.382 273.104 119.54 271.198 123.871C243.986 123.871 216.947 123.871 189.216 123.871C210.188 83.5049 231.16 43.3117 252.132 2.77194C284.89 2.77194 317.648 2.77194 350.926 2.77194C371.379 42.2722 392.177 82.1189 412.976 121.792C413.207 121.792 413.438 121.735 413.669 121.619C413.669 82.1189 413.669 42.6187 413.669 2.94519C440.881 2.94519 467.746 2.94519 495.131 2.94519C495.131 15.6499 495.131 28.4702 495.131 41.4059C495.363 41.5214 495.594 41.6369 495.825 41.7524C509.113 28.8167 522.343 15.8232 535.516 2.77194C567.407 2.77194 599.126 2.77194 631.71 2.77194C614.205 20.2699 597.046 37.0748 579.713 54.3994C597.392 77.4413 615.245 100.483 633.27 123.871C601.379 123.871 570.18 123.871 538.462 123.871C528.525 110.474 518.415 96.7871 508.131 82.8119C503.798 86.2768 499.638 89.5685 495.305 93.0335C495.305 103.082 495.305 113.303 495.305 123.698C440.881 123.698 386.631 123.698 332.034 123.698C330.128 119.887 328.221 115.556 326.141 111.224C309.849 111.224 293.383 111.224 277.091 111.224ZM290.436 73.6298C298.236 73.6298 305.169 73.6298 312.795 73.6298C308.982 64.7942 305.516 56.4784 301.529 47.1231C297.716 56.4784 294.25 64.7942 290.436 73.6298Z" fill="#FF0030"/>
<path d="M197.535 92.687C165.99 92.687 134.792 92.687 103.247 92.687C103.247 103.255 103.247 113.477 103.247 123.871C77.0752 123.871 51.25 123.871 25.2515 123.871C25.2515 83.6781 25.2515 43.3117 25.2515 2.94519C83.6615 2.94519 141.898 2.94519 200.481 2.94519C200.481 16.9782 200.481 31.1844 200.481 45.7371C168.243 45.7371 136.005 45.7371 103.42 45.7371C103.42 49.0288 103.42 51.974 103.42 55.2657C134.792 55.2657 165.99 55.2657 197.535 55.2657C197.535 67.7394 197.535 79.8667 197.535 92.687Z" fill="#FF0030"/>
</g>
<path d="M72.1593 188.241V162.861H87.8553V165.345H75.1113V174.201H87.1353V176.685H75.1113V188.241H72.1593ZM91.8819 188.241V162.861H107.902V165.345H94.7619V174.129H107.146V176.613H94.7619V185.757H107.902V188.241H91.8819ZM112.87 188.241V162.861H122.914C125.626 162.861 127.714 163.497 129.178 164.769C130.642 166.041 131.374 167.853 131.374 170.205C131.374 171.693 131.038 172.989 130.366 174.093C129.718 175.173 128.758 176.001 127.486 176.577C126.214 177.129 124.69 177.405 122.914 177.405L123.274 176.937H123.994C124.93 176.937 125.746 177.177 126.442 177.657C127.138 178.137 127.774 178.905 128.35 179.961L132.814 188.241H129.574L125.182 180.105C124.822 179.433 124.414 178.905 123.958 178.521C123.526 178.137 123.022 177.873 122.446 177.729C121.894 177.585 121.222 177.513 120.43 177.513H115.822V188.241H112.87ZM115.822 175.173H122.482C124.45 175.173 125.938 174.765 126.946 173.949C127.954 173.109 128.458 171.861 128.458 170.205C128.458 168.597 127.954 167.385 126.946 166.569C125.938 165.729 124.45 165.309 122.482 165.309H115.822V175.173ZM135.85 179.853V177.441H145.93V179.853H135.85ZM159.051 188.565C157.347 188.565 155.871 188.193 154.623 187.449C153.375 186.705 152.403 185.661 151.707 184.317C151.035 182.949 150.699 181.341 150.699 179.493C150.699 177.645 151.035 176.049 151.707 174.705C152.403 173.337 153.375 172.281 154.623 171.537C155.871 170.793 157.347 170.421 159.051 170.421C160.755 170.421 162.231 170.793 163.479 171.537C164.727 172.281 165.687 173.337 166.359 174.705C167.055 176.049 167.403 177.645 167.403 179.493C167.403 181.341 167.055 182.949 166.359 184.317C165.687 185.661 164.727 186.705 163.479 187.449C162.231 188.193 160.755 188.565 159.051 188.565ZM159.051 186.225C160.707 186.225 162.015 185.649 162.975 184.497C163.959 183.321 164.451 181.641 164.451 179.457C164.451 177.297 163.959 175.641 162.975 174.489C162.015 173.337 160.707 172.761 159.051 172.761C157.419 172.761 156.111 173.337 155.127 174.489C154.143 175.641 153.651 177.297 153.651 179.457C153.651 181.641 154.143 183.321 155.127 184.497C156.111 185.649 157.419 186.225 159.051 186.225ZM176.685 188.241L169.161 170.745H172.329L178.593 186.081H177.621L183.993 170.745H186.981L179.421 188.241H176.685ZM195.221 188.565C194.021 188.565 192.941 188.337 191.981 187.881C191.045 187.401 190.301 186.753 189.749 185.937C189.197 185.121 188.921 184.209 188.921 183.201C188.921 181.905 189.245 180.885 189.893 180.141C190.565 179.397 191.657 178.869 193.169 178.557C194.705 178.245 196.793 178.089 199.433 178.089H201.053V179.997H199.469C198.005 179.997 196.781 180.045 195.797 180.141C194.813 180.237 194.033 180.405 193.457 180.645C192.881 180.885 192.473 181.197 192.233 181.581C191.993 181.965 191.873 182.445 191.873 183.021C191.873 184.005 192.209 184.809 192.881 185.433C193.577 186.057 194.513 186.369 195.689 186.369C196.649 186.369 197.489 186.141 198.209 185.685C198.953 185.229 199.529 184.605 199.937 183.813C200.369 183.021 200.585 182.109 200.585 181.077V176.973C200.585 175.485 200.285 174.417 199.685 173.769C199.085 173.097 198.101 172.761 196.733 172.761C195.677 172.761 194.657 172.917 193.673 173.229C192.689 173.517 191.681 173.997 190.649 174.669L189.641 172.545C190.265 172.113 190.973 171.741 191.765 171.429C192.557 171.093 193.385 170.841 194.249 170.673C195.113 170.505 195.941 170.421 196.733 170.421C198.245 170.421 199.493 170.673 200.477 171.177C201.461 171.657 202.193 172.401 202.673 173.409C203.153 174.393 203.393 175.665 203.393 177.225V188.241H200.657V184.173H200.981C200.789 185.085 200.417 185.865 199.865 186.513C199.337 187.161 198.677 187.665 197.885 188.025C197.093 188.385 196.205 188.565 195.221 188.565ZM223.556 188.565C222.356 188.565 221.276 188.337 220.316 187.881C219.38 187.401 218.636 186.753 218.084 185.937C217.532 185.121 217.256 184.209 217.256 183.201C217.256 181.905 217.58 180.885 218.228 180.141C218.9 179.397 219.992 178.869 221.504 178.557C223.04 178.245 225.128 178.089 227.768 178.089H229.388V179.997H227.804C226.34 179.997 225.116 180.045 224.132 180.141C223.148 180.237 222.368 180.405 221.792 180.645C221.216 180.885 220.808 181.197 220.568 181.581C220.328 181.965 220.208 182.445 220.208 183.021C220.208 184.005 220.544 184.809 221.216 185.433C221.912 186.057 222.848 186.369 224.024 186.369C224.984 186.369 225.824 186.141 226.544 185.685C227.288 185.229 227.864 184.605 228.272 183.813C228.704 183.021 228.92 182.109 228.92 181.077V176.973C228.92 175.485 228.62 174.417 228.02 173.769C227.42 173.097 226.436 172.761 225.068 172.761C224.012 172.761 222.992 172.917 222.008 173.229C221.024 173.517 220.016 173.997 218.984 174.669L217.976 172.545C218.6 172.113 219.308 171.741 220.1 171.429C220.892 171.093 221.72 170.841 222.584 170.673C223.448 170.505 224.276 170.421 225.068 170.421C226.58 170.421 227.828 170.673 228.812 171.177C229.796 171.657 230.528 172.401 231.008 173.409C231.488 174.393 231.728 175.665 231.728 177.225V188.241H228.992V184.173H229.316C229.124 185.085 228.752 185.865 228.2 186.513C227.672 187.161 227.012 187.665 226.22 188.025C225.428 188.385 224.54 188.565 223.556 188.565ZM237.138 188.241V162.861H240.054V178.521H240.126L248.226 170.745H251.934L242.322 179.961V178.377L252.69 188.241H248.982L240.126 180.033H240.054V188.241H237.138ZM260.471 188.565C259.271 188.565 258.191 188.337 257.231 187.881C256.295 187.401 255.551 186.753 254.999 185.937C254.447 185.121 254.171 184.209 254.171 183.201C254.171 181.905 254.495 180.885 255.143 180.141C255.815 179.397 256.907 178.869 258.419 178.557C259.955 178.245 262.043 178.089 264.683 178.089H266.303V179.997H264.719C263.255 179.997 262.031 180.045 261.047 180.141C260.063 180.237 259.283 180.405 258.707 180.645C258.131 180.885 257.723 181.197 257.483 181.581C257.243 181.965 257.123 182.445 257.123 183.021C257.123 184.005 257.459 184.809 258.131 185.433C258.827 186.057 259.763 186.369 260.939 186.369C261.899 186.369 262.739 186.141 263.459 185.685C264.203 185.229 264.779 184.605 265.187 183.813C265.619 183.021 265.835 182.109 265.835 181.077V176.973C265.835 175.485 265.535 174.417 264.935 173.769C264.335 173.097 263.351 172.761 261.983 172.761C260.927 172.761 259.907 172.917 258.923 173.229C257.939 173.517 256.931 173.997 255.899 174.669L254.891 172.545C255.515 172.113 256.223 171.741 257.015 171.429C257.807 171.093 258.635 170.841 259.499 170.673C260.363 170.505 261.191 170.421 261.983 170.421C263.495 170.421 264.743 170.673 265.727 171.177C266.711 171.657 267.443 172.401 267.923 173.409C268.403 174.393 268.643 175.665 268.643 177.225V188.241H265.907V184.173H266.231C266.039 185.085 265.667 185.865 265.115 186.513C264.587 187.161 263.927 187.665 263.135 188.025C262.343 188.385 261.455 188.565 260.471 188.565ZM280.712 188.565C279.152 188.565 277.784 188.193 276.608 187.449C275.456 186.705 274.556 185.661 273.908 184.317C273.284 182.949 272.972 181.341 272.972 179.493C272.972 177.621 273.284 176.013 273.908 174.669C274.556 173.301 275.456 172.257 276.608 171.537C277.784 170.793 279.152 170.421 280.712 170.421C282.296 170.421 283.652 170.817 284.78 171.609C285.908 172.401 286.664 173.469 287.048 174.813H286.652V162.861H289.568V188.241H286.724V184.065H287.084C286.7 185.433 285.932 186.525 284.78 187.341C283.652 188.157 282.296 188.565 280.712 188.565ZM281.324 186.225C282.98 186.225 284.288 185.649 285.248 184.497C286.232 183.321 286.724 181.653 286.724 179.493C286.724 177.309 286.232 175.641 285.248 174.489C284.288 173.337 282.98 172.761 281.324 172.761C279.692 172.761 278.384 173.337 277.4 174.489C276.416 175.641 275.924 177.309 275.924 179.493C275.924 181.653 276.416 183.321 277.4 184.497C278.384 185.649 279.692 186.225 281.324 186.225ZM302.925 188.565C301.077 188.565 299.481 188.205 298.137 187.485C296.817 186.741 295.785 185.697 295.041 184.353C294.321 183.009 293.961 181.401 293.961 179.529C293.961 177.705 294.321 176.121 295.041 174.777C295.761 173.409 296.745 172.341 297.993 171.573C299.265 170.805 300.729 170.421 302.385 170.421C303.969 170.421 305.325 170.769 306.453 171.465C307.581 172.161 308.445 173.145 309.045 174.417C309.669 175.689 309.981 177.213 309.981 178.989V180.105H296.193V178.197H308.037L307.461 178.665C307.461 176.745 307.029 175.257 306.165 174.201C305.325 173.121 304.089 172.581 302.457 172.581C301.233 172.581 300.189 172.869 299.325 173.445C298.485 173.997 297.849 174.777 297.417 175.785C296.985 176.769 296.769 177.921 296.769 179.241V179.457C296.769 180.921 296.997 182.157 297.453 183.165C297.933 184.173 298.641 184.941 299.577 185.469C300.513 185.973 301.629 186.225 302.925 186.225C303.957 186.225 304.953 186.069 305.913 185.757C306.897 185.421 307.821 184.881 308.685 184.137L309.693 186.189C308.901 186.909 307.893 187.485 306.669 187.917C305.445 188.349 304.197 188.565 302.925 188.565ZM314.273 188.241V170.745H317.117V174.633H316.721C317.009 173.745 317.429 172.989 317.981 172.365C318.557 171.717 319.229 171.237 319.997 170.925C320.789 170.589 321.653 170.421 322.589 170.421C324.077 170.421 325.277 170.781 326.189 171.501C327.125 172.197 327.749 173.289 328.061 174.777H327.521C327.953 173.433 328.721 172.377 329.825 171.609C330.953 170.817 332.261 170.421 333.749 170.421C335.069 170.421 336.149 170.673 336.989 171.177C337.853 171.681 338.501 172.449 338.933 173.481C339.365 174.489 339.581 175.773 339.581 177.333V188.241H336.665V177.477C336.665 175.869 336.389 174.693 335.837 173.949C335.285 173.181 334.349 172.797 333.029 172.797C332.093 172.797 331.265 173.025 330.545 173.481C329.849 173.937 329.309 174.585 328.925 175.425C328.565 176.241 328.385 177.213 328.385 178.341V188.241H325.469V177.477C325.469 175.869 325.181 174.693 324.605 173.949C324.053 173.181 323.129 172.797 321.833 172.797C320.873 172.797 320.045 173.025 319.349 173.481C318.653 173.937 318.113 174.585 317.729 175.425C317.369 176.241 317.189 177.213 317.189 178.341V188.241H314.273ZM350.937 188.565C350.025 188.565 349.137 188.469 348.273 188.277C347.433 188.109 346.641 187.869 345.897 187.557C345.177 187.221 344.553 186.825 344.025 186.369L344.961 184.317C345.537 184.773 346.161 185.157 346.833 185.469C347.505 185.757 348.189 185.973 348.885 186.117C349.581 186.261 350.289 186.333 351.009 186.333C352.377 186.333 353.409 186.081 354.105 185.577C354.801 185.073 355.149 184.389 355.149 183.525C355.149 182.853 354.921 182.325 354.465 181.941C354.009 181.533 353.289 181.221 352.305 181.005L349.029 180.285C347.517 179.973 346.389 179.433 345.645 178.665C344.925 177.897 344.565 176.901 344.565 175.677C344.565 174.597 344.841 173.673 345.393 172.905C345.969 172.113 346.773 171.501 347.805 171.069C348.837 170.637 350.037 170.421 351.405 170.421C352.221 170.421 353.001 170.505 353.745 170.673C354.489 170.841 355.185 171.093 355.833 171.429C356.505 171.741 357.081 172.137 357.561 172.617L356.589 174.669C356.133 174.237 355.617 173.877 355.041 173.589C354.465 173.277 353.865 173.049 353.241 172.905C352.641 172.737 352.029 172.653 351.405 172.653C350.061 172.653 349.041 172.917 348.345 173.445C347.649 173.973 347.301 174.669 347.301 175.533C347.301 176.205 347.517 176.757 347.949 177.189C348.381 177.621 349.053 177.933 349.965 178.125L353.241 178.809C354.801 179.145 355.965 179.685 356.733 180.429C357.525 181.149 357.921 182.133 357.921 183.381C357.921 184.437 357.633 185.361 357.057 186.153C356.481 186.921 355.665 187.521 354.609 187.953C353.577 188.361 352.353 188.565 350.937 188.565ZM362.365 188.241V162.861H365.281V178.521H365.353L373.453 170.745H377.161L367.549 179.961V178.377L377.917 188.241H374.209L365.353 180.033H365.281V188.241H362.365ZM385.697 188.565C384.497 188.565 383.417 188.337 382.457 187.881C381.521 187.401 380.777 186.753 380.225 185.937C379.673 185.121 379.397 184.209 379.397 183.201C379.397 181.905 379.721 180.885 380.369 180.141C381.041 179.397 382.133 178.869 383.645 178.557C385.181 178.245 387.269 178.089 389.909 178.089H391.529V179.997H389.945C388.481 179.997 387.257 180.045 386.273 180.141C385.289 180.237 384.509 180.405 383.933 180.645C383.357 180.885 382.949 181.197 382.709 181.581C382.469 181.965 382.349 182.445 382.349 183.021C382.349 184.005 382.685 184.809 383.357 185.433C384.053 186.057 384.989 186.369 386.165 186.369C387.125 186.369 387.965 186.141 388.685 185.685C389.429 185.229 390.005 184.605 390.413 183.813C390.845 183.021 391.061 182.109 391.061 181.077V176.973C391.061 175.485 390.761 174.417 390.161 173.769C389.561 173.097 388.577 172.761 387.209 172.761C386.153 172.761 385.133 172.917 384.149 173.229C383.165 173.517 382.157 173.997 381.125 174.669L380.117 172.545C380.741 172.113 381.449 171.741 382.241 171.429C383.033 171.093 383.861 170.841 384.725 170.673C385.589 170.505 386.417 170.421 387.209 170.421C388.721 170.421 389.969 170.673 390.953 171.177C391.937 171.657 392.669 172.401 393.149 173.409C393.629 174.393 393.869 175.665 393.869 177.225V188.241H391.133V184.173H391.457C391.265 185.085 390.893 185.865 390.341 186.513C389.813 187.161 389.153 187.665 388.361 188.025C387.569 188.385 386.681 188.565 385.697 188.565ZM408.525 188.241V162.861H411.441V178.521H411.513L419.613 170.745H423.321L413.709 179.961V178.377L424.077 188.241H420.369L411.513 180.033H411.441V188.241H408.525ZM433.34 188.565C431.636 188.565 430.16 188.193 428.912 187.449C427.664 186.705 426.692 185.661 425.996 184.317C425.324 182.949 424.988 181.341 424.988 179.493C424.988 177.645 425.324 176.049 425.996 174.705C426.692 173.337 427.664 172.281 428.912 171.537C430.16 170.793 431.636 170.421 433.34 170.421C435.044 170.421 436.52 170.793 437.768 171.537C439.016 172.281 439.976 173.337 440.648 174.705C441.344 176.049 441.692 177.645 441.692 179.493C441.692 181.341 441.344 182.949 440.648 184.317C439.976 185.661 439.016 186.705 437.768 187.449C436.52 188.193 435.044 188.565 433.34 188.565ZM433.34 186.225C434.996 186.225 436.304 185.649 437.264 184.497C438.248 183.321 438.74 181.641 438.74 179.457C438.74 177.297 438.248 175.641 437.264 174.489C436.304 173.337 434.996 172.761 433.34 172.761C431.708 172.761 430.4 173.337 429.416 174.489C428.432 175.641 427.94 177.297 427.94 179.457C427.94 181.641 428.432 183.321 429.416 184.497C430.4 185.649 431.708 186.225 433.34 186.225ZM446.072 188.241V170.745H448.916V174.633H448.52C449.024 173.241 449.84 172.197 450.968 171.501C452.12 170.781 453.44 170.421 454.928 170.421C456.32 170.421 457.472 170.673 458.384 171.177C459.32 171.657 460.016 172.413 460.472 173.445C460.928 174.477 461.156 175.773 461.156 177.333V188.241H458.24V177.513C458.24 176.433 458.096 175.545 457.808 174.849C457.544 174.153 457.112 173.637 456.512 173.301C455.936 172.965 455.18 172.797 454.244 172.797C453.188 172.797 452.264 173.025 451.472 173.481C450.68 173.937 450.068 174.573 449.636 175.389C449.204 176.205 448.988 177.165 448.988 178.269V188.241H446.072ZM467.469 188.241V173.013H464.013V170.745H468.261L467.469 171.501V170.133C467.469 167.805 468.045 166.041 469.197 164.841C470.373 163.641 472.173 162.969 474.597 162.825L476.001 162.753L476.253 164.985L474.597 165.093C473.613 165.165 472.809 165.381 472.185 165.741C471.561 166.101 471.105 166.617 470.817 167.289C470.529 167.961 470.385 168.789 470.385 169.773V171.285L469.953 170.745H475.425V173.013H470.385V188.241H467.469ZM485.913 188.565C484.065 188.565 482.469 188.205 481.125 187.485C479.805 186.741 478.773 185.697 478.029 184.353C477.309 183.009 476.949 181.401 476.949 179.529C476.949 177.705 477.309 176.121 478.029 174.777C478.749 173.409 479.733 172.341 480.981 171.573C482.253 170.805 483.717 170.421 485.373 170.421C486.957 170.421 488.313 170.769 489.441 171.465C490.569 172.161 491.433 173.145 492.033 174.417C492.657 175.689 492.969 177.213 492.969 178.989V180.105H479.181V178.197H491.025L490.449 178.665C490.449 176.745 490.017 175.257 489.153 174.201C488.313 173.121 487.077 172.581 485.445 172.581C484.221 172.581 483.177 172.869 482.313 173.445C481.473 173.997 480.837 174.777 480.405 175.785C479.973 176.769 479.757 177.921 479.757 179.241V179.457C479.757 180.921 479.985 182.157 480.441 183.165C480.921 184.173 481.629 184.941 482.565 185.469C483.501 185.973 484.617 186.225 485.913 186.225C486.945 186.225 487.941 186.069 488.901 185.757C489.885 185.421 490.809 184.881 491.673 184.137L492.681 186.189C491.889 186.909 490.881 187.485 489.657 187.917C488.433 188.349 487.185 188.565 485.913 188.565ZM497.189 188.241V170.745H500.033V174.885H499.673C500.081 173.469 500.789 172.401 501.797 171.681C502.805 170.937 504.137 170.505 505.793 170.385L506.837 170.277L507.053 172.797L505.217 173.013C503.585 173.157 502.325 173.685 501.437 174.597C500.573 175.485 500.141 176.709 500.141 178.269V188.241H497.189ZM517.764 188.565C515.916 188.565 514.32 188.205 512.976 187.485C511.656 186.741 510.624 185.697 509.88 184.353C509.16 183.009 508.8 181.401 508.8 179.529C508.8 177.705 509.16 176.121 509.88 174.777C510.6 173.409 511.584 172.341 512.832 171.573C514.104 170.805 515.568 170.421 517.224 170.421C518.808 170.421 520.164 170.769 521.292 171.465C522.42 172.161 523.284 173.145 523.884 174.417C524.508 175.689 524.82 177.213 524.82 178.989V180.105H511.032V178.197H522.876L522.3 178.665C522.3 176.745 521.868 175.257 521.004 174.201C520.164 173.121 518.928 172.581 517.296 172.581C516.072 172.581 515.028 172.869 514.164 173.445C513.324 173.997 512.688 174.777 512.256 175.785C511.824 176.769 511.608 177.921 511.608 179.241V179.457C511.608 180.921 511.836 182.157 512.292 183.165C512.772 184.173 513.48 184.941 514.416 185.469C515.352 185.973 516.468 186.225 517.764 186.225C518.796 186.225 519.792 186.069 520.752 185.757C521.736 185.421 522.66 184.881 523.524 184.137L524.532 186.189C523.74 186.909 522.732 187.485 521.508 187.917C520.284 188.349 519.036 188.565 517.764 188.565ZM529.041 188.241V170.745H531.885V174.633H531.489C531.993 173.241 532.809 172.197 533.937 171.501C535.089 170.781 536.409 170.421 537.897 170.421C539.289 170.421 540.441 170.673 541.353 171.177C542.289 171.657 542.985 172.413 543.441 173.445C543.897 174.477 544.125 175.773 544.125 177.333V188.241H541.209V177.513C541.209 176.433 541.065 175.545 540.777 174.849C540.513 174.153 540.081 173.637 539.481 173.301C538.905 172.965 538.149 172.797 537.213 172.797C536.157 172.797 535.233 173.025 534.441 173.481C533.649 173.937 533.037 174.573 532.605 175.389C532.173 176.205 531.957 177.165 531.957 178.269V188.241H529.041ZM556.918 188.565C555.166 188.565 553.654 188.181 552.382 187.413C551.11 186.645 550.126 185.577 549.43 184.209C548.758 182.817 548.422 181.209 548.422 179.385C548.422 177.537 548.758 175.941 549.43 174.597C550.126 173.253 551.11 172.221 552.382 171.501C553.654 170.781 555.166 170.421 556.918 170.421C557.998 170.421 559.066 170.613 560.122 170.997C561.178 171.381 562.054 171.921 562.75 172.617L561.742 174.741C561.046 174.069 560.278 173.577 559.438 173.265C558.622 172.953 557.842 172.797 557.098 172.797C555.274 172.797 553.87 173.373 552.886 174.525C551.902 175.653 551.41 177.285 551.41 179.421C551.41 181.509 551.902 183.165 552.886 184.389C553.87 185.589 555.274 186.189 557.098 186.189C557.842 186.189 558.622 186.033 559.438 185.721C560.278 185.409 561.046 184.905 561.742 184.209L562.75 186.333C562.054 187.029 561.166 187.581 560.086 187.989C559.03 188.373 557.974 188.565 556.918 188.565ZM565.806 166.389V163.113H569.406V166.389H565.806ZM566.166 188.241V170.745H569.082V188.241H566.166ZM574.281 166.389V163.113H577.881V166.389H574.281ZM569.997 195.189L569.781 192.921L571.329 192.777C572.433 192.681 573.261 192.297 573.813 191.625C574.365 190.953 574.641 190.005 574.641 188.781V170.745H577.557V188.493C577.557 189.549 577.437 190.461 577.197 191.229C576.957 192.021 576.585 192.693 576.081 193.245C575.577 193.797 574.953 194.217 574.209 194.505C573.465 194.817 572.577 195.009 571.545 195.081L569.997 195.189ZM588.549 188.565C587.349 188.565 586.269 188.337 585.309 187.881C584.373 187.401 583.629 186.753 583.077 185.937C582.525 185.121 582.249 184.209 582.249 183.201C582.249 181.905 582.573 180.885 583.221 180.141C583.893 179.397 584.985 178.869 586.497 178.557C588.033 178.245 590.121 178.089 592.761 178.089H594.381V179.997H592.797C591.333 179.997 590.109 180.045 589.125 180.141C588.141 180.237 587.361 180.405 586.785 180.645C586.209 180.885 585.801 181.197 585.561 181.581C585.321 181.965 585.201 182.445 585.201 183.021C585.201 184.005 585.537 184.809 586.209 185.433C586.905 186.057 587.841 186.369 589.017 186.369C589.977 186.369 590.817 186.141 591.537 185.685C592.281 185.229 592.857 184.605 593.265 183.813C593.697 183.021 593.913 182.109 593.913 181.077V176.973C593.913 175.485 593.613 174.417 593.013 173.769C592.413 173.097 591.429 172.761 590.061 172.761C589.005 172.761 587.985 172.917 587.001 173.229C586.017 173.517 585.009 173.997 583.977 174.669L582.969 172.545C583.593 172.113 584.301 171.741 585.093 171.429C585.885 171.093 586.713 170.841 587.577 170.673C588.441 170.505 589.269 170.421 590.061 170.421C591.573 170.421 592.821 170.673 593.805 171.177C594.789 171.657 595.521 172.401 596.001 173.409C596.481 174.393 596.721 175.665 596.721 177.225V188.241H593.985V184.173H594.309C594.117 185.085 593.745 185.865 593.193 186.513C592.665 187.161 592.005 187.665 591.213 188.025C590.421 188.385 589.533 188.565 588.549 188.565ZM618.649 188.565C616.945 188.565 615.469 188.193 614.221 187.449C612.973 186.705 612.001 185.661 611.305 184.317C610.633 182.949 610.297 181.341 610.297 179.493C610.297 177.645 610.633 176.049 611.305 174.705C612.001 173.337 612.973 172.281 614.221 171.537C615.469 170.793 616.945 170.421 618.649 170.421C620.353 170.421 621.829 170.793 623.077 171.537C624.325 172.281 625.285 173.337 625.957 174.705C626.653 176.049 627.001 177.645 627.001 179.493C627.001 181.341 626.653 182.949 625.957 184.317C625.285 185.661 624.325 186.705 623.077 187.449C621.829 188.193 620.353 188.565 618.649 188.565ZM618.649 186.225C620.305 186.225 621.613 185.649 622.573 184.497C623.557 183.321 624.049 181.641 624.049 179.457C624.049 177.297 623.557 175.641 622.573 174.489C621.613 173.337 620.305 172.761 618.649 172.761C617.017 172.761 615.709 173.337 614.725 174.489C613.741 175.641 613.249 177.297 613.249 179.457C613.249 181.641 613.741 183.321 614.725 184.497C615.709 185.649 617.017 186.225 618.649 186.225ZM646.531 188.565C645.619 188.565 644.731 188.469 643.867 188.277C643.027 188.109 642.235 187.869 641.491 187.557C640.771 187.221 640.147 186.825 639.619 186.369L640.555 184.317C641.131 184.773 641.755 185.157 642.427 185.469C643.099 185.757 643.783 185.973 644.479 186.117C645.175 186.261 645.883 186.333 646.603 186.333C647.971 186.333 649.003 186.081 649.699 185.577C650.395 185.073 650.743 184.389 650.743 183.525C650.743 182.853 650.515 182.325 650.059 181.941C649.603 181.533 648.883 181.221 647.899 181.005L644.623 180.285C643.111 179.973 641.983 179.433 641.239 178.665C640.519 177.897 640.159 176.901 640.159 175.677C640.159 174.597 640.435 173.673 640.987 172.905C641.563 172.113 642.367 171.501 643.399 171.069C644.431 170.637 645.631 170.421 646.999 170.421C647.815 170.421 648.595 170.505 649.339 170.673C650.083 170.841 650.779 171.093 651.427 171.429C652.099 171.741 652.675 172.137 653.155 172.617L652.183 174.669C651.727 174.237 651.211 173.877 650.635 173.589C650.059 173.277 649.459 173.049 648.835 172.905C648.235 172.737 647.623 172.653 646.999 172.653C645.655 172.653 644.635 172.917 643.939 173.445C643.243 173.973 642.895 174.669 642.895 175.533C642.895 176.205 643.111 176.757 643.543 177.189C643.975 177.621 644.647 177.933 645.559 178.125L648.835 178.809C650.395 179.145 651.559 179.685 652.327 180.429C653.119 181.149 653.515 182.133 653.515 183.381C653.515 184.437 653.227 185.361 652.651 186.153C652.075 186.921 651.259 187.521 650.203 187.953C649.171 188.361 647.947 188.565 646.531 188.565ZM657.599 166.389V163.113H661.199V166.389H657.599ZM657.959 188.241V170.745H660.875V188.241H657.959ZM674.066 195.045C672.554 195.045 671.126 194.841 669.782 194.433C668.462 194.049 667.286 193.461 666.254 192.669L667.226 190.545C667.946 191.049 668.654 191.457 669.35 191.769C670.07 192.105 670.802 192.345 671.546 192.489C672.314 192.633 673.106 192.705 673.922 192.705C675.626 192.705 676.91 192.249 677.774 191.337C678.662 190.425 679.106 189.105 679.106 187.377V183.309H679.466C679.106 184.701 678.338 185.805 677.162 186.621C676.01 187.437 674.654 187.845 673.094 187.845C671.486 187.845 670.094 187.485 668.918 186.765C667.742 186.021 666.83 184.989 666.182 183.669C665.558 182.349 665.246 180.825 665.246 179.097C665.246 177.369 665.558 175.857 666.182 174.561C666.83 173.241 667.742 172.221 668.918 171.501C670.094 170.781 671.486 170.421 673.094 170.421C674.678 170.421 676.046 170.829 677.198 171.645C678.35 172.437 679.094 173.517 679.43 174.885H679.106V170.745H681.95V186.981C681.95 188.757 681.65 190.245 681.05 191.445C680.474 192.645 679.598 193.545 678.422 194.145C677.246 194.745 675.794 195.045 674.066 195.045ZM673.634 185.469C675.314 185.469 676.646 184.893 677.63 183.741C678.614 182.589 679.106 181.041 679.106 179.097C679.106 177.153 678.614 175.617 677.63 174.489C676.646 173.337 675.314 172.761 673.634 172.761C671.978 172.761 670.658 173.337 669.674 174.489C668.69 175.617 668.198 177.153 668.198 179.097C668.198 181.041 668.69 182.589 669.674 183.741C670.658 184.893 671.978 185.469 673.634 185.469ZM693.612 188.565C692.196 188.565 691.02 188.313 690.084 187.809C689.172 187.281 688.476 186.501 687.996 185.469C687.54 184.437 687.312 183.153 687.312 181.617V170.745H690.228V181.581C690.228 182.613 690.36 183.477 690.624 184.173C690.912 184.845 691.356 185.349 691.956 185.685C692.556 185.997 693.3 186.153 694.188 186.153C695.196 186.153 696.072 185.925 696.816 185.469C697.56 185.013 698.148 184.377 698.58 183.561C699.012 182.745 699.228 181.785 699.228 180.681V170.745H702.144V188.241H699.3V184.209H699.768C699.288 185.625 698.496 186.705 697.392 187.449C696.312 188.193 695.052 188.565 693.612 188.565ZM707.599 188.241V170.745H710.443V174.885H710.083C710.491 173.469 711.199 172.401 712.207 171.681C713.215 170.937 714.547 170.505 716.203 170.385L717.247 170.277L717.463 172.797L715.627 173.013C713.995 173.157 712.735 173.685 711.847 174.597C710.983 175.485 710.551 176.709 710.551 178.269V188.241H707.599ZM720.502 188.241V170.745H723.346V174.633H722.95C723.454 173.241 724.27 172.197 725.398 171.501C726.55 170.781 727.87 170.421 729.358 170.421C730.75 170.421 731.902 170.673 732.814 171.177C733.75 171.657 734.446 172.413 734.902 173.445C735.358 174.477 735.586 175.773 735.586 177.333V188.241H732.67V177.513C732.67 176.433 732.526 175.545 732.238 174.849C731.974 174.153 731.542 173.637 730.942 173.301C730.366 172.965 729.61 172.797 728.674 172.797C727.618 172.797 726.694 173.025 725.902 173.481C725.11 173.937 724.498 174.573 724.066 175.389C723.634 176.205 723.418 177.165 723.418 178.269V188.241H720.502ZM748.235 188.565C746.531 188.565 745.055 188.193 743.807 187.449C742.559 186.705 741.587 185.661 740.891 184.317C740.219 182.949 739.883 181.341 739.883 179.493C739.883 177.645 740.219 176.049 740.891 174.705C741.587 173.337 742.559 172.281 743.807 171.537C745.055 170.793 746.531 170.421 748.235 170.421C749.939 170.421 751.415 170.793 752.663 171.537C753.911 172.281 754.871 173.337 755.543 174.705C756.239 176.049 756.587 177.645 756.587 179.493C756.587 181.341 756.239 182.949 755.543 184.317C754.871 185.661 753.911 186.705 752.663 187.449C751.415 188.193 749.939 188.565 748.235 188.565ZM748.235 186.225C749.891 186.225 751.199 185.649 752.159 184.497C753.143 183.321 753.635 181.641 753.635 179.457C753.635 177.297 753.143 175.641 752.159 174.489C751.199 173.337 749.891 172.761 748.235 172.761C746.603 172.761 745.295 173.337 744.311 174.489C743.327 175.641 742.835 177.297 742.835 179.457C742.835 181.641 743.327 183.321 744.311 184.497C745.295 185.649 746.603 186.225 748.235 186.225ZM766.87 188.565C765.958 188.565 765.07 188.469 764.206 188.277C763.366 188.109 762.574 187.869 761.83 187.557C761.11 187.221 760.486 186.825 759.958 186.369L760.894 184.317C761.47 184.773 762.094 185.157 762.766 185.469C763.438 185.757 764.122 185.973 764.818 186.117C765.514 186.261 766.222 186.333 766.942 186.333C768.31 186.333 769.342 186.081 770.038 185.577C770.734 185.073 771.082 184.389 771.082 183.525C771.082 182.853 770.854 182.325 770.398 181.941C769.942 181.533 769.222 181.221 768.238 181.005L764.962 180.285C763.45 179.973 762.322 179.433 761.578 178.665C760.858 177.897 760.498 176.901 760.498 175.677C760.498 174.597 760.774 173.673 761.326 172.905C761.902 172.113 762.706 171.501 763.738 171.069C764.77 170.637 765.97 170.421 767.338 170.421C768.154 170.421 768.934 170.505 769.678 170.673C770.422 170.841 771.118 171.093 771.766 171.429C772.438 171.741 773.014 172.137 773.494 172.617L772.522 174.669C772.066 174.237 771.55 173.877 770.974 173.589C770.398 173.277 769.798 173.049 769.174 172.905C768.574 172.737 767.962 172.653 767.338 172.653C765.994 172.653 764.974 172.917 764.278 173.445C763.582 173.973 763.234 174.669 763.234 175.533C763.234 176.205 763.45 176.757 763.882 177.189C764.314 177.621 764.986 177.933 765.898 178.125L769.174 178.809C770.734 179.145 771.898 179.685 772.666 180.429C773.458 181.149 773.854 182.133 773.854 183.381C773.854 184.437 773.566 185.361 772.99 186.153C772.414 186.921 771.598 187.521 770.542 187.953C769.51 188.361 768.286 188.565 766.87 188.565ZM785.143 188.565C783.079 188.565 781.531 188.013 780.499 186.909C779.467 185.805 778.951 184.233 778.951 182.193V173.013H775.531V170.745H778.951V165.381H781.867V170.745H787.411V173.013H781.867V181.905C781.867 183.273 782.155 184.317 782.731 185.037C783.307 185.733 784.243 186.081 785.539 186.081C785.923 186.081 786.307 186.033 786.691 185.937C787.075 185.841 787.423 185.745 787.735 185.649L788.239 187.881C787.927 188.049 787.471 188.205 786.871 188.349C786.271 188.493 785.695 188.565 785.143 188.565ZM790.349 166.389V163.113H793.949V166.389H790.349ZM790.709 188.241V170.745H793.625V188.241H790.709Z" fill="#F5F5F5"/>
<defs>
<clipPath id="clip0_92_4">
<rect width="814.62" height="128.203" fill="white" transform="translate(24.0381)"/>
</clipPath>
</defs>
</svg>
